<svg width="15" height="16" viewBox="0 0 15 16" fill="none" xmlns="http://www.w3.org/2000/svg">
<g id="book-open-line">
<path id="Vector" d="M8.05615 13.2923V14.474H6.87442V13.2923H2.14751C1.82118 13.2923 1.55664 13.0278 1.55664 12.7014V3.2476C1.55664 2.92128 1.82118 2.65674 2.14751 2.65674H5.69269C6.3986 2.65674 7.03224 2.9662 7.46528 3.45687C7.89833 2.9662 8.53197 2.65674 9.23788 2.65674H12.7831C13.1094 2.65674 13.3739 2.92128 13.3739 3.2476V12.7014C13.3739 13.0278 13.1094 13.2923 12.7831 13.2923H8.05615ZM12.1922 12.1106V3.83847H9.23788C8.58521 3.83847 8.05615 4.36754 8.05615 5.0202V12.1106H12.1922ZM6.87442 12.1106V5.0202C6.87442 4.36754 6.34536 3.83847 5.69269 3.83847H2.73837V12.1106H6.87442Z" fill="white"/>
</g>
</svg>
