<svg width="13" height="13" viewBox="0 0 13 13" fill="none" xmlns="http://www.w3.org/2000/svg">
<path d="M-0.00714111 4.70287C-0.00714111 2.63397 1.6657 0.956787 3.74327 0.956787H8.74242C10.8137 0.956787 12.4929 2.64102 12.4929 4.70287V12.2068H3.74327C1.67198 12.2068 -0.00714111 10.5225 -0.00714111 8.46072V4.70287ZM11.2429 10.9568V4.70287C11.2429 3.32891 10.1209 2.20679 8.74242 2.20679H3.74327C2.35822 2.20679 1.24286 3.32215 1.24286 4.70287V8.46072C1.24286 9.83466 2.36481 10.9568 3.74327 10.9568H11.2429ZM7.49286 5.95679H8.74286V7.20679H7.49286V5.95679ZM3.74286 5.95679H4.99286V7.20679H3.74286V5.95679Z" fill="#90939B"/>
</svg>
