<svg width="22" height="20" viewBox="0 0 22 20" fill="none" xmlns="http://www.w3.org/2000/svg">
<path d="M0.376038 7.10644C0.376038 3.6008 3.21057 0.758911 6.7309 0.758911H15.2017C18.7114 0.758911 21.5566 3.61276 21.5566 7.10644V19.8214H6.7309C3.22121 19.8214 0.376038 16.9675 0.376038 13.4739V7.10644ZM19.4385 17.7033V7.10644C19.4385 4.77833 17.5375 2.87697 15.2017 2.87697H6.7309C4.38401 2.87697 2.49409 4.76688 2.49409 7.10644V13.4739C2.49409 15.802 4.39517 17.7033 6.7309 17.7033H19.4385ZM13.0844 9.23113H15.2024V11.3492H13.0844V9.23113ZM6.7302 9.23113H8.84825V11.3492H6.7302V9.23113Z" fill="white"/>
</svg>
