<svg width="14" height="14" viewBox="0 0 14 14" fill="none" xmlns="http://www.w3.org/2000/svg">
<path d="M7.37207 0.58252C10.9936 0.58252 13.9294 3.51835 13.9294 7.13989C13.9294 10.7614 10.9936 13.6973 7.37207 13.6973C6.25601 13.6973 5.20502 13.4184 4.28505 12.9266L0.814697 13.6973L1.58603 10.2282C1.09379 9.30796 0.814697 8.25648 0.814697 7.13989C0.814697 3.51835 3.75053 0.58252 7.37207 0.58252ZM7.37207 1.89399C4.47484 1.89399 2.12617 4.24266 2.12617 7.13989C2.12617 8.01511 2.3397 8.85668 2.74248 9.60966L2.97176 10.0383L2.5422 11.9703L4.47495 11.5411L4.90334 11.7701C5.6561 12.1725 6.49725 12.3858 7.37207 12.3858C10.2693 12.3858 12.618 10.0371 12.618 7.13989C12.618 4.24266 10.2693 1.89399 7.37207 1.89399Z" fill="#D3D3D3"/>
</svg>
