<svg xmlns="http://www.w3.org/2000/svg" width="8" height="8" viewBox="0 0 13 13" fill="none">
<path d="M7.24559 11.4278V12.6694H6.00393V11.4278H1.03733C0.69446 11.4278 0.416504 11.1498 0.416504 10.807V0.873751C0.416504 0.530882 0.69446 0.252926 1.03733 0.252926H4.76228C5.50398 0.252926 6.16976 0.578083 6.62476 1.09364C7.07976 0.578083 7.74554 0.252926 8.48724 0.252926H12.2122C12.5551 0.252926 12.833 0.530882 12.833 0.873751V10.807C12.833 11.1498 12.5551 11.4278 12.2122 11.4278H7.24559ZM11.5914 10.1861V1.49458H8.48724C7.80147 1.49458 7.24559 2.05048 7.24559 2.73623V10.1861H11.5914ZM6.00393 10.1861V2.73623C6.00393 2.05048 5.44805 1.49458 4.76228 1.49458H1.65816V10.1861H6.00393Z" fill="white"/>
</svg>