<svg xmlns="http://www.w3.org/2000/svg" width="44" height="44" viewBox="0 0 44 44" fill="none">
  <path d="M21.75 22.8115L29.4397 30.5012L26.8765 33.0645L23.5625 29.7519V39.8748H19.9375V29.7483L16.6235 33.0645L14.0602 30.5012L21.75 22.8115ZM21.75 3.62476C28.263 3.62476 33.6298 8.5323 34.3543 14.8513C38.5805 16.0069 41.6875 19.8749 41.6875 24.4685C41.6875 29.6682 37.7065 33.9381 32.6261 34.3967L32.6266 30.7477C35.7001 30.3073 38.0625 27.6638 38.0625 24.4685C38.0625 20.9649 35.2223 18.1248 31.7188 18.1248C31.3403 18.1248 30.9696 18.1579 30.6108 18.2226C30.7429 17.6067 30.8125 16.9676 30.8125 16.3123C30.8125 11.3072 26.755 7.24976 21.75 7.24976C16.7449 7.24976 12.6875 11.3072 12.6875 16.3123C12.6875 16.9676 12.7571 17.6067 12.8906 18.2214C12.5304 18.1579 12.1597 18.1248 11.7812 18.1248C8.27769 18.1248 5.4375 20.9649 5.4375 24.4685C5.4375 27.5503 7.63499 30.1188 10.5485 30.6926L10.8751 30.7481L10.8757 34.3967C5.79449 33.9392 1.8125 29.6689 1.8125 24.4685C1.8125 19.8749 4.91956 16.0069 9.14675 14.8516C9.87017 8.5323 15.237 3.62476 21.75 3.62476Z" fill="#C3C3C3"/>
</svg>