
<svg xmlns="http://www.w3.org/2000/svg" width="16" height="16" viewBox="0 0 16 16" fill="none">
  <path d="M6.55664 5.4436H9.05664V4.5061C9.05664 3.29798 10.036 2.3186 11.2441 2.3186C12.4523 2.3186 13.4316 3.29798 13.4316 4.5061C13.4316 5.71423 12.4523 6.6936 11.2441 6.6936H10.3066V9.1936H11.2441C12.4523 9.1936 13.4316 10.173 13.4316 11.3811C13.4316 12.5892 12.4523 13.5686 11.2441 13.5686C10.036 13.5686 9.05664 12.5892 9.05664 11.3811V10.4436H6.55664V11.3811C6.55664 12.5892 5.57727 13.5686 4.36914 13.5686C3.16102 13.5686 2.18164 12.5892 2.18164 11.3811C2.18164 10.173 3.16102 9.1936 4.36914 9.1936H5.30664V6.6936H4.36914C3.16102 6.6936 2.18164 5.71423 2.18164 4.5061C2.18164 3.29798 3.16102 2.3186 4.36914 2.3186C5.57727 2.3186 6.55664 3.29798 6.55664 4.5061V5.4436ZM5.30664 5.4436V4.5061C5.30664 3.98833 4.88691 3.5686 4.36914 3.5686C3.85137 3.5686 3.43164 3.98833 3.43164 4.5061C3.43164 5.02387 3.85137 5.4436 4.36914 5.4436H5.30664ZM5.30664 10.4436H4.36914C3.85137 10.4436 3.43164 10.8634 3.43164 11.3811C3.43164 11.8989 3.85137 12.3186 4.36914 12.3186C4.88691 12.3186 5.30664 11.8989 5.30664 11.3811V10.4436ZM10.3066 5.4436H11.2441C11.7619 5.4436 12.1816 5.02387 12.1816 4.5061C12.1816 3.98833 11.7619 3.5686 11.2441 3.5686C10.7264 3.5686 10.3066 3.98833 10.3066 4.5061V5.4436ZM10.3066 10.4436V11.3811C10.3066 11.8989 10.7264 12.3186 11.2441 12.3186C11.7619 12.3186 12.1816 11.8989 12.1816 11.3811C12.1816 10.8634 11.7619 10.4436 11.2441 10.4436H10.3066ZM6.55664 6.6936V9.1936H9.05664V6.6936H6.55664Z" fill="#F8F8F8"/>
</svg>