<svg xmlns="http://www.w3.org/2000/svg" width="15" height="14" viewBox="0 0 15 14" fill="none">
  <path d="M4.36139 8.25033L6.42346 10.1657L5.59932 10.9314L6.42451 11.698L5.59952 12.4641L4.15606 11.1233L2.50593 12.6555L1.68097 11.8895L3.3311 10.3573L1.88721 9.0169L2.71217 8.25087L3.53693 9.0163L4.36139 8.25033ZM1.99944 2.61369L4.06793 2.61551L10.9614 9.01657L11.7867 8.25087L12.6117 9.0169L11.168 10.3575L12.8179 11.8895L11.9929 12.6555L10.343 11.1235L8.89936 12.4641L8.07441 11.698L8.89901 10.9316L2.00104 4.52642L1.99944 2.61369ZM10.4328 2.61375L12.4995 2.61551L12.5006 4.52387L10.1364 6.7185L8.07371 4.80371L10.4328 2.61375Z" fill="#EDEDED"/>
</svg>