<svg xmlns="http://www.w3.org/2000/svg" width="17" height="17" viewBox="0 0 17 17" fill="none">
  <path d="M3.09319 6.29907H13.7599V14.9657C13.7599 15.3339 13.4614 15.6324 13.0932 15.6324H3.75986C3.39167 15.6324 3.09319 15.3339 3.09319 14.9657V6.29907ZM5.09319 4.29907V2.96574C5.09319 2.59755 5.39167 2.29907 5.75986 2.29907H11.0932C11.4614 2.29907 11.7599 2.59755 11.7599 2.96574V4.29907H15.0932V5.63241H1.75986V4.29907H5.09319ZM6.42652 3.63241V4.29907H10.4265V3.63241H6.42652ZM6.42652 8.96574V12.9657H7.75986V8.96574H6.42652ZM9.09319 8.96574V12.9657H10.4265V8.96574H9.09319Z" fill="#FF5555"/>
</svg>