<svg width="41" height="29" viewBox="0 0 41 29" fill="none" xmlns="http://www.w3.org/2000/svg">
<g id="Frame 1242">
<path id="Vector" d="M23.7193 15.4547C22.5071 15.4547 21.4878 15.0415 20.6614 14.215C19.8349 13.3886 19.4217 12.3693 19.4217 11.1572C19.4217 9.94503 19.8349 8.92574 20.6614 8.09928C21.4878 7.27283 22.5071 6.8596 23.7193 6.8596C24.9314 6.8596 25.9507 7.27283 26.7771 8.09928C27.6036 8.92574 28.0168 9.94503 28.0168 11.1572C28.0168 12.3693 27.6036 13.3886 26.7771 14.215C25.9507 15.0415 24.9314 15.4547 23.7193 15.4547ZM10.4134 22.3143C9.45882 22.3143 8.64166 21.9744 7.96189 21.2947C7.28213 20.6149 6.94224 19.7977 6.94224 18.8432V3.47114C6.94224 2.51658 7.28213 1.69942 7.96189 1.01965C8.64166 0.339884 9.45882 0 10.4134 0H37.0252C37.9797 0 38.7969 0.339884 39.4766 1.01965C40.1564 1.69942 40.4963 2.51658 40.4963 3.47114V18.8432C40.4963 19.7977 40.1564 20.6149 39.4766 21.2947C38.7969 21.9744 37.9797 22.3143 37.0252 22.3143H10.4134ZM12.5622 20.1655H34.8764C34.8764 19.204 35.2162 18.3852 35.896 17.7088C36.5758 17.0325 37.3929 16.6944 38.3475 16.6944V5.61991C37.3861 5.61991 36.5672 5.28003 35.8908 4.60027C35.2145 3.92053 34.8764 3.10339 34.8764 2.14883H12.5622C12.5622 3.11027 12.2223 3.92915 11.5425 4.60547C10.8627 5.28177 10.0456 5.61991 9.09102 5.61991V16.6944C10.0525 16.6944 10.8714 17.0343 11.5477 17.714C12.224 18.3938 12.5622 19.2109 12.5622 20.1655ZM34.1326 28.7606H3.96699C3.01243 28.7606 2.19529 28.4208 1.51556 27.741C0.835793 27.0612 0.495911 26.2441 0.495911 25.2895V6.36371H2.64469V25.2895C2.64469 25.6201 2.78243 25.9231 3.0579 26.1986C3.33341 26.4741 3.63644 26.6118 3.96699 26.6118H34.1326V28.7606ZM10.4134 20.1655H9.09102V2.14883H10.4134C10.0553 2.14883 9.74532 2.27968 9.4836 2.54136C9.22188 2.80308 9.09102 3.11301 9.09102 3.47114V18.8432C9.09102 19.2013 9.22188 19.5112 9.4836 19.7729C9.74532 20.0346 10.0553 20.1655 10.4134 20.1655Z" fill="white"/>
</g>
</svg>
