<svg xmlns="http://www.w3.org/2000/svg" width="18" height="18" viewBox="0 0 18 18" fill="none">
  <path d="M9.26303 15.7482C5.35101 15.7482 2.17969 12.5769 2.17969 8.66484C2.17969 4.75286 5.35101 1.58154 9.26303 1.58154C13.175 1.58154 16.3464 4.75286 16.3464 8.66484C16.3464 12.5769 13.175 15.7482 9.26303 15.7482ZM9.26303 14.3315C12.3927 14.3315 14.9297 11.7945 14.9297 8.66484C14.9297 5.53526 12.3927 2.99821 9.26303 2.99821C6.13341 2.99821 3.59635 5.53526 3.59635 8.66484C3.59635 11.7945 6.13341 14.3315 9.26303 14.3315ZM6.78385 10.0815H10.6797C10.8753 10.0815 11.0339 9.92298 11.0339 9.72734C11.0339 9.53177 10.8753 9.37317 10.6797 9.37317H7.84637C6.86835 9.37317 6.07552 8.58041 6.07552 7.60234C6.07552 6.62437 6.86835 5.83154 7.84637 5.83154H8.5547V4.41488H9.97137V5.83154H11.7422V7.24817H7.84637C7.65075 7.24817 7.49219 7.40677 7.49219 7.60234C7.49219 7.79798 7.65075 7.95651 7.84637 7.95651H10.6797C11.6577 7.95651 12.4505 8.74935 12.4505 9.72734C12.4505 10.7054 11.6577 11.4982 10.6797 11.4982H9.97137V12.9148H8.5547V11.4982H6.78385V10.0815Z" fill="#F8F8F8"/>
</svg>