<svg width="24" height="24" viewBox="0 0 41 40" fill="none" xmlns="http://www.w3.org/2000/svg">
<g id="download-icon 1">
<path id="Vector" d="M20.5026 25.9622L14.6051 20.0647L15.7846 18.866L19.6693 22.7507V8.33398H21.3359V22.7507L25.2206 18.866L26.4001 20.0647L20.5026 25.9622ZM11.5282 31.6673C10.7611 31.6673 10.1207 31.4104 9.60677 30.8965C9.09288 30.3826 8.83594 29.7421 8.83594 28.975V24.9366H10.5026V28.975C10.5026 29.2314 10.6094 29.4665 10.8231 29.6802C11.0368 29.8938 11.2718 30.0007 11.5282 30.0007H29.477C29.7334 30.0007 29.9684 29.8938 30.1821 29.6802C30.3958 29.4665 30.5026 29.2314 30.5026 28.975V24.9366H32.1693V28.975C32.1693 29.7421 31.9123 30.3826 31.3984 30.8965C30.8846 31.4104 30.2441 31.6673 29.477 31.6673H11.5282Z" fill="white"/>
</g>
</svg>
