<svg width="89" height="88" viewBox="0 0 89 88" fill="none" xmlns="http://www.w3.org/2000/svg">
<g opacity="0.4">
<mask id="path-1-outside-1_8119_444" maskUnits="userSpaceOnUse" x="0.436768" y="0.0595093" width="88" height="88" fill="black">
<rect fill="white" x="0.436768" y="0.0595093" width="88" height="88"/>
<path d="M44.5403 3.7226C44.5403 2.8041 45.2854 2.05608 46.2032 2.09233C56.3117 2.49159 65.9606 6.5204 73.3621 13.4709C81.1686 20.8016 85.8883 30.8316 86.5607 41.5193C87.2331 52.2071 83.8077 62.7495 76.9816 71.0008C70.1555 79.2522 60.4417 84.5924 49.8172 85.9345C39.1928 87.2767 28.4561 84.52 19.7924 78.2255C11.1288 71.9309 5.18918 62.5716 3.18253 52.0524C1.17589 41.5332 3.253 30.6446 8.99112 21.6028C14.4316 13.03 22.7755 6.7282 32.4671 3.82761C33.347 3.56425 34.2548 4.10346 34.4832 4.9931C34.7116 5.88274 34.1741 6.78564 33.2951 7.05197C24.4227 9.74014 16.7866 15.5266 11.7995 23.3851C6.51469 31.7126 4.60167 41.741 6.44979 51.4292C8.29791 61.1174 13.7683 69.7373 21.7475 75.5345C29.7268 81.3318 39.6152 83.8707 49.4004 82.6346C59.1855 81.3985 68.1319 76.4801 74.4187 68.8806C80.7056 61.2811 83.8604 51.5716 83.2411 41.7282C82.6218 31.8847 78.2749 22.6472 71.0852 15.8956C64.3004 9.52424 55.4652 5.81857 46.2031 5.42132C45.2854 5.38196 44.5403 4.6411 44.5403 3.7226Z"/>
</mask>
<path d="M44.5403 3.7226C44.5403 2.8041 45.2854 2.05608 46.2032 2.09233C56.3117 2.49159 65.9606 6.5204 73.3621 13.4709C81.1686 20.8016 85.8883 30.8316 86.5607 41.5193C87.2331 52.2071 83.8077 62.7495 76.9816 71.0008C70.1555 79.2522 60.4417 84.5924 49.8172 85.9345C39.1928 87.2767 28.4561 84.52 19.7924 78.2255C11.1288 71.9309 5.18918 62.5716 3.18253 52.0524C1.17589 41.5332 3.253 30.6446 8.99112 21.6028C14.4316 13.03 22.7755 6.7282 32.4671 3.82761C33.347 3.56425 34.2548 4.10346 34.4832 4.9931C34.7116 5.88274 34.1741 6.78564 33.2951 7.05197C24.4227 9.74014 16.7866 15.5266 11.7995 23.3851C6.51469 31.7126 4.60167 41.741 6.44979 51.4292C8.29791 61.1174 13.7683 69.7373 21.7475 75.5345C29.7268 81.3318 39.6152 83.8707 49.4004 82.6346C59.1855 81.3985 68.1319 76.4801 74.4187 68.8806C80.7056 61.2811 83.8604 51.5716 83.2411 41.7282C82.6218 31.8847 78.2749 22.6472 71.0852 15.8956C64.3004 9.52424 55.4652 5.81857 46.2031 5.42132C45.2854 5.38196 44.5403 4.6411 44.5403 3.7226Z" fill="white"/>
<path d="M44.5403 3.7226C44.5403 2.8041 45.2854 2.05608 46.2032 2.09233C56.3117 2.49159 65.9606 6.5204 73.3621 13.4709C81.1686 20.8016 85.8883 30.8316 86.5607 41.5193C87.2331 52.2071 83.8077 62.7495 76.9816 71.0008C70.1555 79.2522 60.4417 84.5924 49.8172 85.9345C39.1928 87.2767 28.4561 84.52 19.7924 78.2255C11.1288 71.9309 5.18918 62.5716 3.18253 52.0524C1.17589 41.5332 3.253 30.6446 8.99112 21.6028C14.4316 13.03 22.7755 6.7282 32.4671 3.82761C33.347 3.56425 34.2548 4.10346 34.4832 4.9931C34.7116 5.88274 34.1741 6.78564 33.2951 7.05197C24.4227 9.74014 16.7866 15.5266 11.7995 23.3851C6.51469 31.7126 4.60167 41.741 6.44979 51.4292C8.29791 61.1174 13.7683 69.7373 21.7475 75.5345C29.7268 81.3318 39.6152 83.8707 49.4004 82.6346C59.1855 81.3985 68.1319 76.4801 74.4187 68.8806C80.7056 61.2811 83.8604 51.5716 83.2411 41.7282C82.6218 31.8847 78.2749 22.6472 71.0852 15.8956C64.3004 9.52424 55.4652 5.81857 46.2031 5.42132C45.2854 5.38196 44.5403 4.6411 44.5403 3.7226Z" stroke="white" stroke-width="3" mask="url(#path-1-outside-1_8119_444)"/>
<path d="M44.5403 3.7226C44.5403 2.8041 45.2854 2.05608 46.2032 2.09233C56.3117 2.49159 65.9606 6.5204 73.3621 13.4709C81.1686 20.8016 85.8883 30.8316 86.5607 41.5193C87.2331 52.2071 83.8077 62.7495 76.9816 71.0008C70.1555 79.2522 60.4417 84.5924 49.8172 85.9345C39.1928 87.2767 28.4561 84.52 19.7924 78.2255C11.1288 71.9309 5.18918 62.5716 3.18253 52.0524C1.17589 41.5332 3.253 30.6446 8.99112 21.6028C14.4316 13.03 22.7755 6.7282 32.4671 3.82761C33.347 3.56425 34.2548 4.10346 34.4832 4.9931C34.7116 5.88274 34.1741 6.78564 33.2951 7.05197C24.4227 9.74014 16.7866 15.5266 11.7995 23.3851C6.51469 31.7126 4.60167 41.741 6.44979 51.4292C8.29791 61.1174 13.7683 69.7373 21.7475 75.5345C29.7268 81.3318 39.6152 83.8707 49.4004 82.6346C59.1855 81.3985 68.1319 76.4801 74.4187 68.8806C80.7056 61.2811 83.8604 51.5716 83.2411 41.7282C82.6218 31.8847 78.2749 22.6472 71.0852 15.8956C64.3004 9.52424 55.4652 5.81857 46.2031 5.42132C45.2854 5.38196 44.5403 4.6411 44.5403 3.7226Z" stroke="white" stroke-width="3" mask="url(#path-1-outside-1_8119_444)"/>
</g>
<path opacity="0.4" d="M31.6492 58.7968C27.0558 58.7968 23.8443 56.5585 22.6765 54.2034C22.404 53.639 22.2678 53.1718 22.2678 52.6658C22.2678 51.498 23.0463 50.6416 24.3893 50.6416C25.4014 50.6416 26.0242 51.1087 26.8028 52.1013C28.1263 53.8725 29.4693 54.7289 31.8049 54.7289C36.1453 54.7289 38.3057 50.7194 38.3641 44.3549V44.0434H38.2862C37.2158 46.7683 34.3157 48.5979 30.676 48.5979C25.4208 48.5979 21.353 44.822 21.353 39.3917C21.353 33.6694 25.7712 29.5626 31.8438 29.5626C36.2231 29.5626 39.7071 31.723 41.634 35.8104C42.6461 37.9708 43.1911 40.6568 43.1911 43.8683C43.1911 53.2497 38.8896 58.7968 31.6492 58.7968ZM31.8438 44.7052C35.0942 44.7052 37.5272 42.428 37.5272 39.2943C37.5272 36.1412 35.0748 33.6888 31.9022 33.6888C28.7686 33.6888 26.2772 36.1218 26.2772 39.197C26.2772 42.4085 28.6518 44.7052 31.8438 44.7052ZM57.8666 58.7968C53.4873 58.7968 50.0228 56.6558 48.0764 52.549C47.0448 50.3886 46.5193 47.7026 46.5193 44.5106C46.5193 35.1486 50.8013 29.5626 57.9444 29.5626C62.2264 29.5626 65.4963 31.4311 66.8976 34.0976C67.2091 34.662 67.3453 35.1486 67.3453 35.6936C67.3453 36.8419 66.5278 37.7178 65.2043 37.7178C64.2117 37.7178 63.5888 37.2507 62.8103 36.258C61.5062 34.4674 60.0076 33.6499 57.925 33.6499C53.6819 33.6499 51.4241 37.5621 51.3268 44.024V44.3159H51.4241C52.5336 41.7273 55.3363 39.7809 59.1512 39.7809C64.562 39.7809 68.3574 43.6736 68.3574 48.9872C68.3574 54.69 63.9392 58.7968 57.8666 58.7968ZM57.7887 54.7095C60.9223 54.7095 63.4137 52.2571 63.4137 49.1818C63.4331 45.9509 61.0781 43.6542 57.8471 43.6542C54.6162 43.6542 52.1832 45.9509 52.1832 49.0845C52.1832 52.2376 54.6551 54.7095 57.7887 54.7095Z" fill="white"/>
</svg>
