<svg width="18" height="14" viewBox="0 0 18 14" fill="none" xmlns="http://www.w3.org/2000/svg">
<g clip-path="url(#clip0_11489_3895)">
<path d="M6.29708 10.9705C5.49438 11.2305 4.69168 11.4669 3.88897 11.7269C3.816 11.7505 3.35384 11.8924 2.89168 11.6324C2.59978 11.4669 2.38087 11.1833 2.30789 10.8287L0.99438 5.20327C0.824109 4.49418 1.28627 3.71418 1.99168 3.50145L9.87276 1.04327C10.6025 0.830543 11.3079 1.20872 11.4782 1.94145C11.6241 2.556 11.7701 3.17054 11.8917 3.76145" stroke="#D6576E" stroke-width="1.1856"/>
<path d="M7.92759 3.73779H16.0519C16.806 3.73779 17.4141 4.3287 17.4141 5.06143V10.9232C17.4141 11.656 16.806 12.2469 16.0519 12.2469H7.92759C7.17354 12.2469 6.56543 11.656 6.56543 10.9232V5.08507C6.56543 4.3287 7.17354 3.73779 7.92759 3.73779Z" stroke="#D6576E" stroke-width="1.1856"/>
</g>
<defs>
<clipPath id="clip0_11489_3895">
<rect width="18" height="13" fill="white" transform="translate(0 0.0620117)"/>
</clipPath>
</defs>
</svg>
