<svg xmlns="http://www.w3.org/2000/svg" width="19" height="19" viewBox="0 0 19 19" fill="none">
  <path d="M2.55489 13.5579C2.2307 12.9964 1.98737 12.4104 1.82129 11.8134C2.55064 11.4412 3.05008 10.6829 3.05008 9.80795C3.05008 8.93367 2.55139 8.1758 1.82294 7.80336C2.15798 6.59518 2.79422 5.47 3.69885 4.55031C4.38582 4.99592 5.2923 5.0493 6.05008 4.6118C6.80786 4.17429 7.21487 3.36256 7.17244 2.54483C8.42127 2.22125 9.71382 2.23283 10.9276 2.54676C10.8859 3.36384 11.2929 4.17464 12.0501 4.6118C12.8079 5.04929 13.7143 4.99592 14.4012 4.55035C14.8353 4.99269 15.2211 5.49643 15.5453 6.05796C15.8694 6.61947 16.1128 7.20549 16.2789 7.80251C15.5495 8.17465 15.0501 8.933 15.0501 9.80795C15.0501 10.6823 15.5487 11.4401 16.2772 11.8125C15.9422 13.0207 15.306 14.1459 14.4013 15.0656C13.7143 14.62 12.8079 14.5666 12.0501 15.0041C11.2923 15.4416 10.8853 16.2534 10.9277 17.0711C9.67894 17.3946 8.38639 17.3831 7.17254 17.0691C7.21422 16.252 6.80726 15.4413 6.05008 15.0041C5.29233 14.5666 4.38588 14.6199 3.69892 15.0655C3.26492 14.6232 2.87908 14.1195 2.55489 13.5579ZM6.80008 13.7051C7.61862 14.1777 8.20647 14.9248 8.48802 15.7822C8.86174 15.8178 9.23794 15.8183 9.61174 15.7834C9.89314 14.9256 10.4811 14.1779 11.3001 13.7051C12.119 13.2322 13.0605 13.0969 13.9442 13.2821C14.1612 12.9758 14.3489 12.6497 14.505 12.3083C13.9032 11.6358 13.5501 10.7531 13.5501 9.80795C13.5501 8.8628 13.9032 7.9802 14.505 7.30767C14.4269 7.13817 14.3406 6.97146 14.2462 6.80796C14.1518 6.64444 14.0505 6.48641 13.9428 6.33411C13.0596 6.51887 12.1186 6.3834 11.3001 5.91084C10.4815 5.43826 9.89374 4.69106 9.61212 3.83371C9.23847 3.79815 8.86219 3.79764 8.48847 3.83249C8.20699 4.69033 7.61899 5.43803 6.80008 5.91084C5.98114 6.38365 5.03963 6.519 4.156 6.33382C3.93893 6.64011 3.75126 6.96618 3.59521 7.30758C4.1969 7.98013 4.55008 8.8628 4.55008 9.80795C4.55008 10.7531 4.19691 11.6357 3.59521 12.3082C3.67329 12.4777 3.75952 12.6444 3.85393 12.8079C3.94833 12.9714 4.04959 13.1295 4.15738 13.2818C5.04062 13.0971 5.98158 13.2325 6.80008 13.7051ZM9.05007 12.0579C7.80747 12.0579 6.80008 11.0506 6.80008 9.80795C6.80008 8.56535 7.80747 7.55796 9.05007 7.55796C10.2927 7.55796 11.3001 8.56535 11.3001 9.80795C11.3001 11.0506 10.2927 12.0579 9.05007 12.0579ZM9.05007 10.5579C9.46429 10.5579 9.80007 10.2222 9.80007 9.80795C9.80007 9.39372 9.46429 9.05795 9.05007 9.05795C8.63584 9.05795 8.30007 9.39372 8.30007 9.80795C8.30007 10.2222 8.63584 10.5579 9.05007 10.5579Z" fill="#F8F8F8"/>
</svg>