<svg xmlns="http://www.w3.org/2000/svg" width="19" height="19" viewBox="0 0 19 19" fill="none">
<path d="M9.1007 2.1604C9.51492 2.1604 9.8507 2.49619 9.8507 2.9104V5.1604C9.8507 5.57461 9.51492 5.9104 9.1007 5.9104C8.68647 5.9104 8.3507 5.57461 8.3507 5.1604V2.9104C8.3507 2.49619 8.68647 2.1604 9.1007 2.1604ZM9.1007 13.4104C9.51492 13.4104 9.8507 13.7462 9.8507 14.1604V16.4104C9.8507 16.8246 9.51492 17.1604 9.1007 17.1604C8.68647 17.1604 8.3507 16.8246 8.3507 16.4104V14.1604C8.3507 13.7462 8.68647 13.4104 9.1007 13.4104ZM15.5958 5.9104C15.803 6.26912 15.6801 6.72781 15.3213 6.93492L13.3728 8.05992C13.014 8.26705 12.5553 8.14412 12.3483 7.7854C12.1412 7.42668 12.264 6.96799 12.6228 6.76089L14.5713 5.63588C14.9301 5.42877 15.3888 5.55168 15.5958 5.9104ZM5.85309 11.5354C6.06019 11.8941 5.93728 12.3528 5.57856 12.5599L3.63001 13.6849C3.27129 13.8921 2.81259 13.7691 2.60549 13.4104C2.39838 13.0517 2.52129 12.593 2.88001 12.3859L4.82856 11.2609C5.18728 11.0538 5.64597 11.1767 5.85309 11.5354ZM15.5958 13.4104C15.3888 13.7691 14.9301 13.8921 14.5713 13.6849L12.6228 12.5599C12.264 12.3528 12.1412 11.8941 12.3483 11.5354C12.5553 11.1767 13.014 11.0538 13.3728 11.2609L15.3213 12.3859C15.6801 12.593 15.803 13.0517 15.5958 13.4104ZM5.85309 7.7854C5.64597 8.14412 5.18728 8.26705 4.82856 8.05992L2.88001 6.93492C2.52129 6.72781 2.39838 6.26912 2.60549 5.9104C2.81259 5.55168 3.27129 5.42877 3.63001 5.63588L5.57856 6.76089C5.93728 6.96799 6.06019 7.42668 5.85309 7.7854Z" fill="#F8F8F8"/>
</svg>