<svg xmlns="http://www.w3.org/2000/svg" width="15" height="15" viewBox="0 0 15 15" fill="none">
  <path d="M7.51601 14.7429C3.60487 14.7429 0.434265 11.5723 0.434265 7.66115C0.434265 3.75001 3.60487 0.579407 7.51601 0.579407C11.4271 0.579407 14.5977 3.75001 14.5977 7.66115C14.5977 11.5723 11.4271 14.7429 7.51601 14.7429ZM5.8943 13.091C5.21262 11.6453 4.79472 10.0507 4.70265 8.36932H1.89444C2.17496 10.6188 3.77429 12.4588 5.8943 13.091ZM6.1214 8.36932C6.22791 10.0964 6.72129 11.7188 7.51601 13.1509C8.31072 11.7188 8.80411 10.0964 8.91061 8.36932H6.1214ZM13.1376 8.36932H10.3294C10.2373 10.0507 9.81941 11.6453 9.13773 13.091C11.2577 12.4588 12.8571 10.6188 13.1376 8.36932ZM1.89444 6.95297H4.70265C4.79472 5.27161 5.21262 3.67701 5.8943 2.23127C3.77429 2.8635 2.17496 4.70346 1.89444 6.95297ZM6.1214 6.95297H8.91061C8.80411 5.22589 8.31072 3.60349 7.51601 2.17138C6.72129 3.60349 6.22791 5.22589 6.1214 6.95297ZM9.13773 2.23127C9.81941 3.67701 10.2373 5.27161 10.3294 6.95297H13.1376C12.8571 4.70346 11.2577 2.8635 9.13773 2.23127Z" fill="#959595"/>
</svg>