<svg width="20" height="20" viewBox="0 0 20 20" fill="none" xmlns="http://www.w3.org/2000/svg">
<path d="M9.5127 15.2278L9.5127 13.7998C11.9156 13.4561 13.7627 11.3896 13.7627 8.89166C13.7627 6.3938 11.9156 4.32731 9.51269 3.98355L9.51269 2.55562C12.7002 2.90795 15.1794 5.61031 15.1794 8.89166C15.1794 12.1731 12.7002 14.8754 9.5127 15.2278Z" fill="#BBC0C1"/>
<path d="M8.09587 15.2278C4.9084 14.8754 2.4292 12.1731 2.4292 8.89166C2.4292 5.61031 4.9084 2.90795 8.09587 2.55562L8.09587 3.98355C5.69299 4.32731 3.84587 6.3938 3.84587 8.89166C3.84587 11.3896 5.69299 13.4561 8.09587 13.7998L8.09587 15.2278Z" fill="#827B6C"/>
</svg>
