<svg width="40" height="40" viewBox="0 0 40 40" fill="none" xmlns="http://www.w3.org/2000/svg">
<g id="heart-3-line">
<path id="Vector" d="M27.3537 5.04492C32.3893 5.04492 36.4714 9.18929 36.4714 14.9914C36.4714 26.5956 24.0383 33.2266 19.8939 35.7133C15.7495 33.2266 3.31641 26.5956 3.31641 14.9914C3.31641 9.18929 7.46078 5.04492 12.434 5.04492C15.5174 5.04492 18.2361 6.70267 19.8939 8.36042C21.5516 6.70267 24.2703 5.04492 27.3537 5.04492ZM21.4421 30.9121C22.9035 29.9915 24.2206 29.0748 25.4555 28.0924C30.3936 24.1637 33.1559 19.871 33.1559 14.9914C33.1559 11.0804 30.6079 8.36042 27.3537 8.36042C25.5702 8.36042 23.6392 9.30386 22.2383 10.7048L19.8939 13.0492L17.5495 10.7048C16.1485 9.30386 14.2176 8.36042 12.434 8.36042C9.21643 8.36042 6.6319 11.1065 6.6319 14.9914C6.6319 19.871 9.39416 24.1637 14.3324 28.0924C15.5672 29.0748 16.8842 29.9915 18.3457 30.9121C18.8405 31.2239 19.3321 31.524 19.8939 31.8593C20.4557 31.524 20.9472 31.2239 21.4421 30.9121Z" fill="white"/>
</g>
</svg>
