<svg width="30" height="29" viewBox="0 0 30 29" fill="none" xmlns="http://www.w3.org/2000/svg">
<path d="M14.6573 26.4851C8.04729 26.4851 2.68884 21.1266 2.68884 14.5167C2.68884 7.90667 8.04729 2.54822 14.6573 2.54822C21.2672 2.54822 26.6257 7.90667 26.6257 14.5167C26.6257 21.1266 21.2672 26.4851 14.6573 26.4851ZM14.6573 24.0914C19.9453 24.0914 24.232 19.8047 24.232 14.5167C24.232 9.22866 19.9453 4.94191 14.6573 4.94191C9.36929 4.94191 5.08253 9.22866 5.08253 14.5167C5.08253 19.8047 9.36929 24.0914 14.6573 24.0914ZM13.4604 8.53244H15.8541V10.9261H13.4604V8.53244ZM13.4604 13.3198H15.8541V20.5009H13.4604V13.3198Z" fill="white"/>
</svg>