<svg xmlns="http://www.w3.org/2000/svg" width="15" height="17" viewBox="0 0 15 17" fill="none">
  <path d="M9.47438 1.80244L12.7742 5.57368C13.002 5.83403 13.002 6.25614 12.7742 6.51649L8.23695 11.7019L6.99947 12.1733L6.17452 13.1161C5.94674 13.3765 5.57739 13.3765 5.34958 13.1161L2.87471 10.2877C2.64691 10.0274 2.64691 9.60526 2.87471 9.34493L3.69967 8.40213L4.11215 6.98786L8.64943 1.80244C8.87722 1.54209 9.24659 1.54209 9.47438 1.80244ZM9.88686 4.15946L6.17452 8.40213L6.99947 9.34493L10.7118 5.10228L9.88686 4.15946ZM2.66847 11.4663L4.31839 13.3519L3.49343 14.2947L1.01855 13.3519L2.66847 11.4663Z" fill="#F8F8F8"/>
</svg>