<svg width="55" height="50" viewBox="0 0 55 50" fill="none" xmlns="http://www.w3.org/2000/svg">
<g id="infinity-line">
<path id="Vector" d="M5.08333 24.9993C5.08333 20.9723 8.28263 17.7077 12.2292 17.7077C14.6863 17.7077 16.3525 18.6114 17.7399 20.0272C19.2229 21.5404 20.3654 23.6081 21.6735 26.011L21.7423 26.1373C22.9694 28.3916 24.363 30.9521 26.2893 32.9179C28.3473 35.0177 31.0196 36.4577 34.6875 36.4577C40.8893 36.4577 45.9167 31.3277 45.9167 24.9993C45.9167 18.6711 40.8893 13.541 34.6875 13.541C31.2971 13.541 28.2579 15.0741 26.1989 17.498C27.1103 18.862 27.863 20.2197 28.489 21.3689C29.7224 19.181 32.0362 17.7077 34.6875 17.7077C38.634 17.7077 41.8333 20.9723 41.8333 24.9993C41.8333 29.0264 38.634 32.291 34.6875 32.291C32.2304 32.291 30.5641 31.3873 29.1768 29.9714C27.6938 28.4583 26.5513 26.3906 25.2432 23.9877L25.1744 23.8614C23.9473 21.6071 22.5537 19.0465 20.6274 17.0809C18.5694 14.981 15.897 13.541 12.2292 13.541C6.02746 13.541 1 18.6711 1 24.9993C1 31.3277 6.02746 36.4577 12.2292 36.4577C15.6195 36.4577 18.6588 34.9246 20.7178 32.5006C19.8064 31.1366 19.0537 29.7789 18.4278 28.6298C17.1944 30.8177 14.8804 32.291 12.2292 32.291C8.28263 32.291 5.08333 29.0264 5.08333 24.9993Z" fill="white"/>
</g>
</svg>
