<svg width="14" height="14" viewBox="0 0 14 14" fill="none" xmlns="http://www.w3.org/2000/svg">
<path d="M7.14482 13.5289C3.46292 13.5289 0.478149 10.5441 0.478149 6.86228C0.478149 3.18038 3.46292 0.19561 7.14482 0.19561C10.8267 0.19561 13.8115 3.18038 13.8115 6.86228C13.8115 10.5441 10.8267 13.5289 7.14482 13.5289ZM7.14482 12.1956C10.0903 12.1956 12.4781 9.80781 12.4781 6.86228C12.4781 3.91676 10.0903 1.52894 7.14482 1.52894C4.1993 1.52894 1.81148 3.91676 1.81148 6.86228C1.81148 9.80781 4.1993 12.1956 7.14482 12.1956ZM6.47815 3.52894H7.81148V4.86228H6.47815V3.52894ZM6.47815 6.19561H7.81148V10.1956H6.47815V6.19561Z" fill="#787D89"/>
</svg>
