<svg width="16" height="18" viewBox="0 0 16 18" fill="none" xmlns="http://www.w3.org/2000/svg">
<path d="M3.78236 10.6942C3.58909 11.2137 3.42502 11.6944 3.27826 12.1797C4.07763 11.5992 5.02929 11.2307 6.12636 11.0936C8.22076 10.8318 10.0811 9.44891 11.023 7.7115L9.80984 6.49923L10.9871 5.3203C11.2652 5.04185 11.5432 4.7636 11.8213 4.48555C12.179 4.12775 12.5831 3.46556 13.0105 2.51257C8.3495 3.23501 5.49546 6.08888 3.78236 10.6942ZM12.1664 6.49798L12.9998 7.33073C12.1664 9.83075 9.66642 12.3307 6.33309 12.7474C4.10931 13.0253 2.71993 14.5532 2.16496 17.3307H0.499756C1.33309 12.3307 2.99976 0.664062 15.4998 0.664062C14.6672 3.16185 13.8346 4.82777 13.002 5.66184C12.7216 5.94223 12.444 6.22001 12.1664 6.49798Z" fill="#D0D0D0"/>
</svg>
