<svg width="37" height="32" viewBox="0 0 37 32" fill="none" xmlns="http://www.w3.org/2000/svg">
<path id="Vector" d="M15.4971 14.4598L31.1764 0L34.0015 2.60538L31.1764 5.21073L36.1204 9.77013L33.2953 12.3755L28.3514 7.81609L25.5263 10.4215L29.7639 14.3295L26.9388 16.9349L22.7012 13.0269L18.3222 17.0651C20.8916 20.6417 20.4679 25.5079 17.0509 28.6591C13.1503 32.2563 6.82614 32.2563 2.9255 28.6591C-0.975165 25.0617 -0.975165 19.2294 2.9255 15.6322C6.34239 12.481 11.619 12.0903 15.4971 14.4598ZM14.2258 26.0536C16.5663 23.8954 16.5663 20.396 14.2258 18.2376C11.8855 16.0792 8.09097 16.0792 5.75059 18.2376C3.4102 20.396 3.4102 23.8954 5.75059 26.0536C8.09097 28.212 11.8855 28.212 14.2258 26.0536Z" fill="white"/>
</svg>
