<svg width="12" height="12" viewBox="0 0 12 12" fill="none" xmlns="http://www.w3.org/2000/svg">
<path d="M9.1819 7.89458L8.4748 7.2464L9.1819 6.59823C10.1582 5.70328 10.1582 4.25227 9.1819 3.35732C8.2056 2.46237 6.62265 2.46237 5.64635 3.35732L4.93924 4.0055L4.23214 3.35732L4.93924 2.70914C6.3061 1.45621 8.52215 1.45621 9.889 2.70914C11.2558 3.96207 11.2558 5.99345 9.889 7.2464L9.1819 7.89458ZM7.76765 9.19097L7.06055 9.83915C5.69375 11.092 3.47765 11.092 2.11082 9.83915C0.743985 8.5862 0.743985 6.55478 2.11082 5.30187L2.81792 4.65368L3.52503 5.30187L2.81792 5.95005C1.84161 6.84499 1.84161 8.29598 2.81792 9.19097C3.79423 10.0859 5.37715 10.0859 6.35345 9.19097L7.06055 8.54275L7.76765 9.19097ZM7.4141 4.32959L8.12125 4.97777L4.58569 8.21866L3.87858 7.57049L7.4141 4.32959Z" fill="#D7D7D7"/>
</svg>
