<svg width="18" height="21" viewBox="0 0 18 21" fill="none" xmlns="http://www.w3.org/2000/svg">
<g id="list-unordered">
<path id="Vector" d="M6.45817 3.87651H15.6665V5.54317H6.45817V3.87651ZM3.979 5.95984C3.3922 5.95984 2.9165 5.4002 2.9165 4.70984C2.9165 4.01948 3.3922 3.45984 3.979 3.45984C4.56581 3.45984 5.0415 4.01948 5.0415 4.70984C5.0415 5.4002 4.56581 5.95984 3.979 5.95984ZM3.979 11.7932C3.3922 11.7932 2.9165 11.2335 2.9165 10.5432C2.9165 9.85284 3.3922 9.29317 3.979 9.29317C4.56581 9.29317 5.0415 9.85284 5.0415 10.5432C5.0415 11.2335 4.56581 11.7932 3.979 11.7932ZM3.979 17.5432C3.3922 17.5432 2.9165 16.9835 2.9165 16.2932C2.9165 15.6028 3.3922 15.0432 3.979 15.0432C4.56581 15.0432 5.0415 15.6028 5.0415 16.2932C5.0415 16.9835 4.56581 17.5432 3.979 17.5432ZM6.45817 9.70984H15.6665V11.3765H6.45817V9.70984ZM6.45817 15.5432H15.6665V17.2098H6.45817V15.5432Z" fill="#D1D1D1"/>
</g>
</svg>
