<svg xmlns="http://www.w3.org/2000/svg" width="13" height="15" viewBox="0 0 13 15" fill="none">
  <path d="M2.11495 5.06037V4.35219C2.11495 2.00551 4.01731 0.103149 6.36399 0.103149C8.71067 0.103149 10.613 2.00551 10.613 4.35219V5.06037H12.0294C12.4205 5.06037 12.7376 5.37743 12.7376 5.76854V14.2666C12.7376 14.6578 12.4205 14.9748 12.0294 14.9748H0.698599C0.307489 14.9748 -0.00957489 14.6578 -0.00957489 14.2666V5.76854C-0.00957489 5.37743 0.307489 5.06037 0.698599 5.06037H2.11495ZM11.3212 6.47672H1.40677V13.5585H11.3212V6.47672ZM5.65582 10.5363C5.23247 10.2914 4.94764 9.83368 4.94764 9.30941C4.94764 8.52717 5.58174 7.89307 6.36399 7.89307C7.14624 7.89307 7.78034 8.52717 7.78034 9.30941C7.78034 9.83368 7.49551 10.2914 7.07217 10.5363V12.1421H5.65582V10.5363ZM3.5313 5.06037H9.19669V4.35219C9.19669 2.78774 7.92842 1.5195 6.36399 1.5195C4.79954 1.5195 3.5313 2.78774 3.5313 4.35219V5.06037Z" fill="#959595"/>
</svg>