<svg width="79" height="80" viewBox="0 0 79 80" fill="none" xmlns="http://www.w3.org/2000/svg">
<path d="M39.4097 5.26196C48.3843 5.26196 55.6597 12.6306 55.6597 21.7203V34.887C55.6597 43.9766 48.3843 51.3453 39.4097 51.3453C30.435 51.3453 23.1596 43.9766 23.1596 34.887V21.7203C23.1596 12.6306 30.435 5.26196 39.4097 5.26196ZM10.3381 38.1786H16.89C18.467 49.345 27.9486 57.9286 39.4097 57.9286C50.8705 57.9286 60.3521 49.345 61.9293 38.1786H68.481C66.9824 51.9101 56.2174 62.8131 42.6597 64.3313V77.6786H36.1597V64.3313C22.6018 62.8131 11.8369 51.9101 10.3381 38.1786Z" fill="url(#paint0_linear_11312_10107)" fill-opacity="0.15"/>
<defs>
<linearGradient id="paint0_linear_11312_10107" x1="39.4096" y1="5.26196" x2="39.4096" y2="77.6786" gradientUnits="userSpaceOnUse">
<stop stop-color="white"/>
<stop offset="0.0001" stop-color="white"/>
<stop offset="1" stop-color="#484848"/>
</linearGradient>
</defs>
</svg>
