<svg width="16" height="15" viewBox="0 0 16 15" fill="none" xmlns="http://www.w3.org/2000/svg">
<g clip-path="url(#clip0_11312_10079)">
<path d="M7.89446 0.718018C9.54099 0.718018 10.8758 2.05281 10.8758 3.69935V6.08441C10.8758 7.73094 9.54099 9.06574 7.89446 9.06574C6.24789 9.06574 4.9131 7.73094 4.9131 6.08441V3.69935C4.9131 2.05281 6.24789 0.718018 7.89446 0.718018ZM2.56079 6.68068H3.76284C4.05217 8.70339 5.79172 10.2583 7.89446 10.2583C9.99713 10.2583 11.7367 8.70339 12.026 6.68068H13.2281C12.9531 9.16806 10.9781 11.1431 8.49072 11.4181V13.8359H7.29819V11.4181C4.81077 11.1431 2.83576 9.16806 2.56079 6.68068Z" fill="#DBDBDB"/>
</g>
<defs>
<clipPath id="clip0_11312_10079">
<rect width="14.3104" height="14.3104" fill="white" transform="translate(0.740479 0.121826)"/>
</clipPath>
</defs>
</svg>
