<svg xmlns="http://www.w3.org/2000/svg" width="40" height="43" viewBox="0 0 40 43" fill="none">
  <path d="M19.9381 6.08602C17.1852 6.08602 14.9537 8.41904 14.9537 11.297V18.2449C14.9537 21.1229 17.1852 23.4558 19.9381 23.4558C22.6908 23.4558 24.9225 21.1229 24.9225 18.2449V11.297C24.9225 8.41904 22.6908 6.08602 19.9381 6.08602ZM19.9381 2.61206C24.526 2.61206 28.2454 6.50043 28.2454 11.297V18.2449C28.2454 23.0414 24.526 26.9298 19.9381 26.9298C15.35 26.9298 11.6307 23.0414 11.6307 18.2449V11.297C11.6307 6.50043 15.35 2.61206 19.9381 2.61206ZM5.07617 19.9819H8.42561C9.23179 25.8742 14.0789 30.4037 19.9381 30.4037C25.7971 30.4037 30.6442 25.8742 31.4505 19.9819H34.7998C34.0337 27.2278 28.5305 32.9812 21.5996 33.7823V40.8256H18.2766V33.7823C11.3456 32.9812 5.84235 27.2278 5.07617 19.9819Z" fill="#C3C3C3"/>
</svg>