<?xml version="1.0" encoding="UTF-8"?>
<svg version="1.1" xmlns="http://www.w3.org/2000/svg" width="481" height="245">
<path d="M0 0 C3.6181483 3.01402917 6.78453146 5.77511827 7.71484375 10.54296875 C8.2799787 17.66366916 7.09845283 21.7084066 2.40234375 27.29296875 C-1.81806698 30.82633587 -5.30176835 31.78611054 -10.72265625 31.41796875 C-15.41749261 30.72918163 -18.46058007 29.37315512 -22.28515625 26.54296875 C-23.27515625 24.56296875 -24.26515625 22.58296875 -25.28515625 20.54296875 C-31.22515625 20.21296875 -37.16515625 19.88296875 -43.28515625 19.54296875 C-42.95515625 41.65296875 -42.62515625 63.76296875 -42.28515625 86.54296875 C-36.67515625 86.54296875 -31.06515625 86.54296875 -25.28515625 86.54296875 C-24.29515625 84.56296875 -23.30515625 82.58296875 -22.28515625 80.54296875 C-17.2397038 75.87592523 -13.36125057 75.29238887 -6.71875 75.3984375 C-1.85111594 75.68752652 0.06731973 76.85026863 3.40234375 80.41796875 C7.45254914 85.89121928 8.52131655 89.77561003 7.71484375 96.54296875 C6.21484375 100.10546875 6.21484375 100.10546875 4.71484375 102.54296875 C4.05484375 102.54296875 3.39484375 102.54296875 2.71484375 102.54296875 C2.38484375 103.53296875 2.05484375 104.52296875 1.71484375 105.54296875 C-3.30433485 109.0177847 -8.37955624 109.42648371 -14.28515625 108.54296875 C-16.93536407 107.4555833 -18.91333286 106.19293285 -21.28515625 104.54296875 C-21.28515625 103.88296875 -21.28515625 103.22296875 -21.28515625 102.54296875 C-21.94515625 102.54296875 -22.60515625 102.54296875 -23.28515625 102.54296875 C-23.94515625 100.89296875 -24.60515625 99.24296875 -25.28515625 97.54296875 C-26.03200684 97.52314941 -26.77885742 97.50333008 -27.54833984 97.48291016 C-30.9193123 97.38788664 -34.28964554 97.27811616 -37.66015625 97.16796875 C-38.83578125 97.13703125 -40.01140625 97.10609375 -41.22265625 97.07421875 C-42.34414063 97.03554687 -43.465625 96.996875 -44.62109375 96.95703125 C-46.17642822 96.9098999 -46.17642822 96.9098999 -47.76318359 96.86181641 C-50.28515625 96.54296875 -50.28515625 96.54296875 -52.28515625 94.54296875 C-52.53071996 91.82296518 -52.65872111 89.19722618 -52.69921875 86.47265625 C-52.7185849 85.67642853 -52.73795105 84.88020081 -52.75790405 84.05984497 C-52.81776099 81.51266241 -52.86410904 78.9654348 -52.91015625 76.41796875 C-52.94833046 74.69268845 -52.98738186 72.96742732 -53.02734375 71.2421875 C-53.12512178 67.00921343 -53.20463964 62.77644752 -53.28515625 58.54296875 C-59.88515625 58.21296875 -66.48515625 57.88296875 -73.28515625 57.54296875 C-73.94515625 59.85296875 -74.60515625 62.16296875 -75.28515625 64.54296875 C-79.64423497 72.76258053 -84.90381968 77.53062139 -93.61328125 80.77734375 C-102.02099293 83.18657107 -109.56616124 81.32539488 -117.28515625 77.54296875 C-124.40539424 73.3727352 -125.66434354 68.5087567 -129.28515625 60.54296875 C-138.85515625 60.21296875 -148.42515625 59.88296875 -158.28515625 59.54296875 C-158.28515625 85.94296875 -158.28515625 112.34296875 -158.28515625 139.54296875 C-148.71515625 139.21296875 -139.14515625 138.88296875 -129.28515625 138.54296875 C-127.30515625 134.58296875 -125.32515625 130.62296875 -123.28515625 126.54296875 C-120.46528616 123.99165771 -118.47147655 122.33056971 -115.28515625 120.54296875 C-114.23328125 119.92421875 -113.18140625 119.30546875 -112.09765625 118.66796875 C-104.15259927 116.32352571 -95.78450445 116.33237153 -88.34765625 120.21484375 C-81.62137832 124.54615908 -76.17335849 129.54439429 -73.7109375 137.3671875 C-72.11701627 145.51227123 -72.56113284 153.09634397 -76.73828125 160.32421875 C-81.89324857 167.71821229 -88.37292973 172.66578718 -97.28515625 174.54296875 C-106.3496143 175.33809665 -114.15174013 172.6630881 -121.22265625 166.91796875 C-125.75660056 163.03657344 -127.31448564 158.01668872 -129.28515625 152.54296875 C-130.42057861 152.52838623 -131.55600098 152.51380371 -132.72583008 152.4987793 C-136.93611234 152.44083199 -141.14585775 152.36359934 -145.35571289 152.28051758 C-147.17821544 152.24725135 -149.00082144 152.21922469 -150.82348633 152.1965332 C-153.44266875 152.16301794 -156.06090173 152.11070523 -158.6796875 152.0546875 C-159.49540726 152.04829758 -160.31112701 152.04190765 -161.15156555 152.0353241 C-166.78903015 151.88860513 -166.78903015 151.88860513 -168.9991188 150.34890175 C-170.7525129 147.88667776 -170.67211667 146.227424 -170.69061279 143.21566772 C-170.7045961 142.11073471 -170.71857941 141.0058017 -170.73298645 139.86738586 C-170.73312241 138.65479599 -170.73325836 137.44220612 -170.73339844 136.19287109 C-170.74519638 134.91632156 -170.75699432 133.63977203 -170.76914978 132.32453918 C-170.80104424 128.822687 -170.81439892 125.32098213 -170.82419872 121.8190074 C-170.83728978 118.15853491 -170.86642861 114.49818902 -170.89361572 110.83779907 C-170.93693012 104.69267317 -170.96904193 98.5475717 -170.99365234 92.40234375 C-171.02534032 84.50493923 -171.07554254 76.60776558 -171.13157272 68.71050072 C-171.17951912 61.93078911 -171.21889364 55.15103168 -171.25692844 48.37125826 C-171.26955833 46.18672236 -171.2833907 44.00219645 -171.29738617 41.81766891 C-171.32276725 37.75655098 -171.33921576 33.69544583 -171.35449219 29.63427734 C-171.36272507 28.41763901 -171.37095795 27.20100067 -171.37944031 25.94749451 C-171.38214432 24.84820114 -171.38484833 23.74890778 -171.38763428 22.61630249 C-171.39203396 21.65508169 -171.39643364 20.69386089 -171.40096664 19.70351219 C-171.28515625 17.54296875 -171.28515625 17.54296875 -170.28515625 16.54296875 C-168.45845285 16.28283694 -166.62282718 16.08373803 -164.78515625 15.91796875 C-163.78484375 15.82257813 -162.78453125 15.7271875 -161.75390625 15.62890625 C-160.93921875 15.60054687 -160.12453125 15.5721875 -159.28515625 15.54296875 C-156.6495575 18.1785675 -157.84183071 25.30574444 -157.72753906 28.89868164 C-157.66054034 30.96860225 -157.5827537 33.03792271 -157.50390625 35.10742188 C-157.46007812 36.40486328 -157.41625 37.70230469 -157.37109375 39.0390625 C-157.33032715 40.23716553 -157.28956055 41.43526855 -157.24755859 42.66967773 C-157.28515625 45.54296875 -157.28515625 45.54296875 -158.28515625 47.54296875 C-148.71515625 47.54296875 -139.14515625 47.54296875 -129.28515625 47.54296875 C-128.62515625 45.23296875 -127.96515625 42.92296875 -127.28515625 40.54296875 C-123.98676632 34.45363349 -118.92502787 29.08330548 -112.48828125 26.359375 C-105.21422013 24.50537649 -95.12119568 24.09730192 -88.125 27.296875 C-81.63177532 31.69462165 -75.22715048 38.00426929 -73.59765625 45.85546875 C-73.49453125 46.74234375 -73.39140625 47.62921875 -73.28515625 48.54296875 C-72.60710937 48.45917969 -71.9290625 48.37539062 -71.23046875 48.2890625 C-70.29976563 48.18722656 -69.3690625 48.08539063 -68.41015625 47.98046875 C-67.05277344 47.82384766 -67.05277344 47.82384766 -65.66796875 47.6640625 C-61.14921078 47.50230558 -56.76839847 48.01072942 -52.28515625 48.54296875 C-52.3008667 47.43260254 -52.31657715 46.32223633 -52.33276367 45.17822266 C-52.38697494 41.0671308 -52.421474 36.95607065 -52.44995117 32.84472656 C-52.46505798 31.06374808 -52.4855446 29.28280691 -52.51147461 27.50195312 C-52.54777568 24.94521897 -52.56486313 22.38897565 -52.578125 19.83203125 C-52.59360886 19.03302399 -52.60909271 18.23401672 -52.62504578 17.41079712 C-52.62573242 15.16650391 -52.62573242 15.16650391 -52.28515625 11.54296875 C-48.88617952 9.27698427 -47.72196452 9.30554221 -43.7421875 9.34765625 C-42.1324707 9.35732422 -42.1324707 9.35732422 -40.49023438 9.3671875 C-38.8109082 9.39232422 -38.8109082 9.39232422 -37.09765625 9.41796875 C-35.96650391 9.42699219 -34.83535156 9.43601562 -33.66992188 9.4453125 C-30.87478797 9.46890013 -28.0800778 9.50181575 -25.28515625 9.54296875 C-25.011875 8.77339844 -24.73859375 8.00382812 -24.45703125 7.2109375 C-22.45145719 2.64491388 -18.86299318 0.31435569 -14.47265625 -1.83203125 C-9.16953716 -2.87185852 -4.67951066 -2.98368799 0 0 Z M-18.28515625 9.54296875 C-19.71819689 12.40905004 -19.5915978 14.35597658 -19.28515625 17.54296875 C-17.00927395 21.76778621 -17.00927395 21.76778621 -13.28515625 24.54296875 C-8.58114115 25.18988635 -5.29414018 25.18130552 -1.22265625 22.60546875 C1.3736913 18.50156456 1.66744313 15.28021971 0.71484375 10.54296875 C-1.07909293 7.67267006 -2.26778901 6.05165237 -5.28515625 4.54296875 C-11.6680469 3.91514344 -14.12083599 4.24292479 -18.28515625 9.54296875 Z M-115.16015625 43.60546875 C-117.89859725 48.3216727 -117.88042702 53.24340535 -117.28515625 58.54296875 C-115.10200999 62.90926127 -112.50457122 66.06635562 -108.28515625 68.54296875 C-102.12710842 70.19149623 -97.53369313 69.85530254 -91.9765625 66.74609375 C-87.58546994 63.62263761 -86.3387658 60.89881729 -85.28515625 55.54296875 C-85.16891089 49.62607976 -86.83245742 45.30209417 -90.28515625 40.54296875 C-98.30786307 34.62144705 -108.66274816 36.45831985 -115.16015625 43.60546875 Z M-18.09765625 86.29296875 C-19.85614354 89.62483941 -19.79778112 91.82643848 -19.28515625 95.54296875 C-17.34378846 99.18200043 -17.34378846 99.18200043 -14.28515625 101.54296875 C-9.2574244 102.69687442 -5.54709881 102.32537313 -1.16015625 99.60546875 C1.36165481 95.48651069 1.76447333 92.25350149 0.71484375 87.54296875 C-1.83041537 83.84077367 -3.4738055 82.77478325 -7.78515625 81.54296875 C-12.61288738 81.54296875 -14.70804496 83.02024061 -18.09765625 86.29296875 Z M-116.28515625 138.54296875 C-118.29267775 142.55801174 -117.89548539 147.18850508 -117.28515625 151.54296875 C-115.13939863 156.24830867 -112.28806401 158.93008067 -107.91015625 161.60546875 C-102.28497586 163.06025678 -97.80242091 162.48526882 -92.53515625 160.04296875 C-88.24100172 157.31480176 -86.46385088 153.38182039 -85.28515625 148.54296875 C-84.97710575 143.86060114 -85.84913245 140.43178649 -87.91015625 136.23046875 C-91.29870408 132.39605936 -94.49336454 130.01961611 -99.52734375 129.16015625 C-107.37086049 128.76401904 -111.8113665 132.24652392 -116.28515625 138.54296875 Z " fill="#F5F5F5" transform="translate(333.28515625,54.45703125)"/>
<path d="M0 0 C6.06113944 3.72630362 12.63751769 9.03298931 15.44921875 15.74609375 C17.4020235 24.44495128 17.38483783 34.23380644 12.765625 42.046875 C7.68898897 48.3644665 1.22655522 53.27700565 -6.82421875 54.75390625 C-13.35907984 55.39625826 -18.19365919 55.43759427 -23.9921875 52.234375 C-24.7553125 51.81929687 -25.5184375 51.40421875 -26.3046875 50.9765625 C-31.90997319 47.60232802 -35.12850779 44.08430436 -37.9921875 38.234375 C-38.50458984 37.32751953 -38.50458984 37.32751953 -39.02734375 36.40234375 C-42.39639052 29.47465017 -40.54936382 21.90590396 -38.203125 14.8671875 C-35.13079135 8.0011897 -30.13804931 2.92289124 -23.3046875 -0.203125 C-15.94832252 -2.80080639 -7.25012672 -3.21553737 0 0 Z M-24.8046875 16.234375 C-28.10597951 20.76186119 -28.54535435 24.75489201 -27.9921875 30.234375 C-26.18831405 35.53988515 -22.95219154 39.59684109 -17.9921875 42.234375 C-12.42428293 43.40438177 -7.49287848 42.9346877 -2.4921875 40.171875 C1.25210945 37.44037968 2.78185577 34.75509046 4.0078125 30.234375 C4.73306121 24.88825592 4.02707995 20.76327618 1.0078125 16.234375 C-2.92452559 12.25906054 -6.13678599 10.35604067 -11.8046875 9.984375 C-17.40008332 10.08685478 -21.14700048 12.0332602 -24.8046875 16.234375 Z " fill="#F6F6F6" transform="translate(180.9921875,10.765625)"/>
<path d="M0 0 C0.66 0.33 1.32 0.66 2 1 C1.21625 1.9075 0.4325 2.815 -0.375 3.75 C-1.93674027 5.6056633 -3.05701829 7.11720427 -4.125 9.3125 C-5 11 -5 11 -8 12 C-9.77313851 12.08209792 -11.54920775 12.10746294 -13.32421875 12.09765625 C-14.25065186 12.09515869 -15.17708496 12.09266113 -16.1315918 12.09008789 C-17.3050415 12.08098389 -18.47849121 12.07187988 -19.6875 12.0625 C-25.2871875 12.0315625 -25.2871875 12.0315625 -31 12 C-31.33 24.21 -31.66 36.42 -32 49 C-37.28 49 -42.56 49 -48 49 C-48 48.67 -48 48.34 -48 48 C-46.62652901 47.80160975 -45.25108154 47.61689017 -43.875 47.4375 C-42.72644531 47.28087891 -42.72644531 47.28087891 -41.5546875 47.12109375 C-38.57984746 46.98008451 -35.92463258 47.4773671 -33 48 C-33.01571045 46.88963379 -33.0314209 45.77926758 -33.04760742 44.63525391 C-33.10181869 40.52416205 -33.13631775 36.4131019 -33.16479492 32.30175781 C-33.17990173 30.52077933 -33.20038835 28.73983816 -33.22631836 26.95898438 C-33.26261943 24.40225022 -33.27970688 21.8460069 -33.29296875 19.2890625 C-33.30845261 18.49005524 -33.32393646 17.69104797 -33.33988953 16.86782837 C-33.34057617 14.62353516 -33.34057617 14.62353516 -33 11 C-29.60102327 8.73401552 -28.43680827 8.76257346 -24.45703125 8.8046875 C-22.84731445 8.81435547 -22.84731445 8.81435547 -21.20507812 8.82421875 C-19.52575195 8.84935547 -19.52575195 8.84935547 -17.8125 8.875 C-16.68134766 8.88402344 -15.55019531 8.89304687 -14.38476562 8.90234375 C-11.58963172 8.92593138 -8.79492155 8.958847 -6 9 C-5.71382813 8.22269531 -5.42765625 7.44539063 -5.1328125 6.64453125 C-3.87465219 3.7073777 -2.35575941 2.12018347 0 0 Z " fill="#E4E4E4" transform="translate(314,55)"/>
<path d="M0 0 C-2.58835996 3.30734884 -4.96825262 3.42403609 -9 4 C-11.28480253 4.97348627 -11.28480253 4.97348627 -13 6 C-5.46629213 -1.95224719 -5.46629213 -1.95224719 0 0 Z " fill="#E2E2E2" transform="translate(226,174)"/>
<path d="M0 0 C2.05078125 0.03255208 4.1015625 0.06510417 6.15234375 0.09765625 C6.15234375 0.75765625 6.15234375 1.41765625 6.15234375 2.09765625 C2.77734375 2.72265625 2.77734375 2.72265625 -0.84765625 3.09765625 C-1.50765625 2.43765625 -2.16765625 1.77765625 -2.84765625 1.09765625 C-1.84765625 0.09765625 -1.84765625 0.09765625 0 0 Z " fill="#E9E9E9" transform="translate(164.84765625,70.90234375)"/>
</svg>
