<svg width="20" height="20" viewBox="0 0 20 20" fill="none" xmlns="http://www.w3.org/2000/svg">
<g id="Frame">
<path id="Vector" d="M9.6354 3.20508C8.97871 3.20508 8.44141 3.74238 8.44141 4.39908C8.44141 5.05577 8.97871 5.59307 9.6354 5.59307C10.2921 5.59307 10.8294 5.05577 10.8294 4.39908C10.8294 3.74238 10.2921 3.20508 9.6354 3.20508ZM9.6354 15.1451C8.97871 15.1451 8.44141 15.6824 8.44141 16.3391C8.44141 16.9957 8.97871 17.533 9.6354 17.533C10.2921 17.533 10.8294 16.9957 10.8294 16.3391C10.8294 15.6824 10.2921 15.1451 9.6354 15.1451ZM9.6354 9.17507C8.97871 9.17507 8.44141 9.71236 8.44141 10.3691C8.44141 11.0258 8.97871 11.5631 9.6354 11.5631C10.2921 11.5631 10.8294 11.0258 10.8294 10.3691C10.8294 9.71236 10.2921 9.17507 9.6354 9.17507Z" fill="white"/>
</g>
</svg>
