<svg width="15" height="16" viewBox="0 0 15 16" fill="none" xmlns="http://www.w3.org/2000/svg">
<g clip-path="url(#clip0_11489_3887)">
<path d="M2.83398 0.687012V2.56201H1.08398V3.81201H2.83398V5.68701H4.00065V3.81201H5.75065V2.56201H4.00065V0.687012H2.83398ZM2.25065 12.5661V6.93701H3.41732V11.937H8.08398V8.81201C8.08398 8.46826 8.34648 8.18701 8.66732 8.18701L11.584 8.18639V3.18701H6.91732V1.93701H12.1712C12.4912 1.93701 12.7507 2.22186 12.7507 2.56356V9.43701L9.25065 13.1845L2.83527 13.187C2.51239 13.187 2.25065 12.9089 2.25065 12.5661ZM11.1004 9.43639L9.25065 9.43701V11.4176L11.1004 9.43639Z" fill="#8F9F51"/>
</g>
<defs>
<clipPath id="clip0_11489_3887">
<rect width="14" height="15" fill="white" transform="translate(0.5 0.0620117)"/>
</clipPath>
</defs>
</svg>
