<svg width="20" height="20" viewBox="0 0 20 20" fill="none" xmlns="http://www.w3.org/2000/svg">
<path d="M4.79166 2.91699H3.9309L2.70813 3.24463V4.53851L3.54148 4.31518L3.54161 7.08366H2.4998V8.33366H5.83313V7.08366H4.79166V2.91699ZM8.33313 3.33366H17.4998V5.00033H8.33313V3.33366ZM8.33313 9.16699H17.4998V10.8337H8.33313V9.16699ZM8.33313 15.0003H17.4998V16.667H8.33313V15.0003ZM2.39563 13.0212C2.39563 12.0432 3.18845 11.2503 4.16646 11.2503C5.14447 11.2503 5.9373 12.0432 5.9373 13.0212C5.9373 13.4258 5.80132 13.7992 5.57269 14.0976L5.56872 14.1027L4.42969 15.417H5.83313V16.667H2.4999L2.49945 15.7325L4.55955 13.3628C4.63921 13.2713 4.6873 13.1521 4.6873 13.0212C4.6873 12.7335 4.45411 12.5003 4.16646 12.5003C3.89461 12.5003 3.67124 12.7087 3.64769 12.9743L3.63738 13.2295H2.39563V13.0212Z" fill="#D0D0D0"/>
</svg>
