<svg
          width="20"
          height="20"
          viewBox="0 0 20 20"
          fill="none"
          xmlns="http://www.w3.org/2000/svg"
        >
          <path
            d="M9.85838 18.1593C5.48612 18.1593 1.94171 14.6148 1.94171 10.2426C1.94171 5.87034 5.48612 2.32593 9.85838 2.32593C14.2306 2.32593 17.775 5.87034 17.775 10.2426C17.775 14.6148 14.2306 18.1593 9.85838 18.1593ZM9.85838 16.5759C13.3562 16.5759 16.1917 13.7404 16.1917 10.2426C16.1917 6.74479 13.3562 3.90926 9.85838 3.90926C6.36057 3.90926 3.52504 6.74479 3.52504 10.2426C3.52504 13.7404 6.36057 16.5759 9.85838 16.5759ZM9.06877 13.4093L5.71004 10.0505L6.82963 8.93088L9.06877 11.1701L13.5471 6.69175L14.6667 7.81133L9.06877 13.4093Z"
            fill="#8CD7B4"
          />
        </svg>