<svg xmlns="http://www.w3.org/2000/svg" width="96" height="96" viewBox="0 0 96 96" fill="none">
  <g opacity="0.47">
    <path d="M48.1888 87.3048C26.3275 87.3048 8.60547 69.5826 8.60547 47.7215C8.60547 25.8602 26.3275 8.13818 48.1888 8.13818C70.0499 8.13818 87.7721 25.8602 87.7721 47.7215C87.7721 69.5826 70.0499 87.3048 48.1888 87.3048ZM48.1888 79.3882C65.6779 79.3882 79.8555 65.2106 79.8555 47.7215C79.8555 30.2325 65.6779 16.0549 48.1888 16.0549C30.6998 16.0549 16.5221 30.2325 16.5221 47.7215C16.5221 65.2106 30.6998 79.3882 48.1888 79.3882ZM36.3138 35.8465H44.2305V59.5965H36.3138V35.8465ZM52.1471 35.8465H60.0638V59.5965H52.1471V35.8465Z" fill="#DDDDDD"/>
  </g>
</svg>