<svg width="18" height="18" viewBox="0 0 18 18" fill="none" xmlns="http://www.w3.org/2000/svg">
<path d="M4.5175 3.84946C5.71774 2.81165 7.28234 2.18388 8.99358 2.18388C12.775 2.18388 15.8404 5.24932 15.8404 9.03073C15.8404 10.4933 15.3818 11.8488 14.6006 12.9612L12.417 9.03073H14.4711C14.4711 6.0056 12.0187 3.55325 8.99358 3.55325C7.52138 3.55325 6.18484 4.13405 5.20058 5.07902L4.5175 3.84946ZM13.4696 14.212C12.2694 15.2498 10.7048 15.8776 8.99358 15.8776C5.21217 15.8776 2.14673 12.8121 2.14673 9.03073C2.14673 7.56815 2.60532 6.21268 3.38656 5.10025L5.57015 9.03073H3.5161C3.5161 12.0559 5.96845 14.5082 8.99358 14.5082C10.4658 14.5082 11.8023 13.9274 12.7866 12.9825L13.4696 14.212Z" fill="#000000"/>
</svg>