<svg width="17" height="18" viewBox="0 0 17 18" fill="none" xmlns="http://www.w3.org/2000/svg">
<g clip-path="url(#clip0_5248_21)">
<g filter="url(#filter0_d_5248_21)">
<path d="M12.5859 12.2292C11.4902 13.1765 10.0621 13.7496 8.5 13.7496C5.04822 13.7496 2.25 10.9513 2.25 7.49959C2.25 4.04781 5.04822 1.24959 8.5 1.24959C11.9517 1.24959 14.75 4.04781 14.75 7.49959C14.75 8.83465 14.3314 10.072 13.6182 11.0875L11.625 7.49959H13.5C13.5 4.73816 11.2614 2.49959 8.5 2.49959C5.73857 2.49959 3.5 4.73816 3.5 7.49959C3.5 10.261 5.73857 12.4996 8.5 12.4996C9.84387 12.4996 11.0639 11.9694 11.9624 11.1068L12.5859 12.2292Z" fill="white"/>
</g>
</g>
<defs>
<filter id="filter0_d_5248_21" x="-3" y="-0.000411987" width="23" height="23" filterUnits="userSpaceOnUse" color-interpolation-filters="sRGB">
<feFlood flood-opacity="0" result="BackgroundImageFix"/>
<feColorMatrix in="SourceAlpha" type="matrix" values="0 0 0 0 0 0 0 0 0 0 0 0 0 0 0 0 0 0 127 0" result="hardAlpha"/>
<feOffset dy="4"/>
<feGaussianBlur stdDeviation="2"/>
<feComposite in2="hardAlpha" operator="out"/>
<feColorMatrix type="matrix" values="0 0 0 0 0 0 0 0 0 0 0 0 0 0 0 0 0 0 0.25 0"/>
<feBlend mode="normal" in2="BackgroundImageFix" result="effect1_dropShadow_5248_21"/>
<feBlend mode="normal" in="SourceGraphic" in2="effect1_dropShadow_5248_21" result="shape"/>
</filter>
<clipPath id="clip0_5248_21">
<rect width="16.5442" height="16.5442" fill="white" transform="translate(0.332031 0.495682)"/>
</clipPath>
</defs>
</svg>
