<svg xmlns="http://www.w3.org/2000/svg" width="14" height="14" viewBox="0 0 14 14" fill="none">
  <path d="M10.9367 11.9259C9.79561 12.9125 8.30815 13.5094 6.68126 13.5094C3.08622 13.5094 0.171875 10.595 0.171875 6.99998C0.171875 3.40495 3.08622 0.490601 6.68126 0.490601C10.2763 0.490601 13.1906 3.40495 13.1906 6.99998C13.1906 8.39045 12.7546 9.67912 12.0119 10.7368L9.93595 6.99998H11.8888C11.8888 4.12396 9.5573 1.79248 6.68126 1.79248C3.80523 1.79248 1.47375 4.12396 1.47375 6.99998C1.47375 9.87603 3.80523 12.2075 6.68126 12.2075C8.08091 12.2075 9.35154 11.6553 10.2873 10.7569L10.9367 11.9259Z" fill="#BEBEBE"/>
</svg>