<svg width="16" height="17" viewBox="0 0 16 17" fill="none" xmlns="http://www.w3.org/2000/svg">
<g clip-path="url(#clip0_5248_40)">
<g clip-path="url(#clip1_5248_40)">
<path d="M6.24902 4.74837C6.24902 5.20619 6.12597 5.63526 5.91112 6.00431L7.49902 7.61451L11.704 3.40954C12.1921 2.92139 12.9836 2.92139 13.4717 3.40954L5.90289 10.9784C6.12282 11.3506 6.24902 11.7848 6.24902 12.2484C6.24902 13.6291 5.12974 14.7484 3.74902 14.7484C2.36831 14.7484 1.24902 13.6291 1.24902 12.2484C1.24902 10.8676 2.36831 9.74839 3.74902 9.74839C4.21265 9.74839 4.6468 9.87457 5.019 10.0945L6.61515 8.49839L5.019 6.90224C4.6468 7.12217 4.21265 7.24837 3.74902 7.24837C2.36831 7.24837 1.24902 6.12909 1.24902 4.74837C1.24902 3.36766 2.36831 2.24837 3.74902 2.24837C5.12974 2.24837 6.24902 3.36766 6.24902 4.74837ZM4.99902 4.74837C4.99902 4.05802 4.43938 3.49837 3.74902 3.49837C3.05867 3.49837 2.49902 4.05802 2.49902 4.74837C2.49902 5.43873 3.05867 5.99837 3.74902 5.99837C4.43938 5.99837 4.99902 5.43873 4.99902 4.74837ZM13.4717 13.5872C12.9836 14.0754 12.1921 14.0754 11.704 13.5872L8.38109 10.2643L9.26496 9.38045L13.4717 13.5872ZM3.74902 13.4984C4.43938 13.4984 4.99902 12.9388 4.99902 12.2484C4.99902 11.558 4.43938 10.9984 3.74902 10.9984C3.05867 10.9984 2.49902 11.558 2.49902 12.2484C2.49902 12.9388 3.05867 13.4984 3.74902 13.4984Z" fill="white"/>
</g>
</g>
<defs>
<clipPath id="clip0_5248_40">
<rect width="15.2278" height="15.2278" fill="white" transform="translate(0.119141 0.947517)"/>
</clipPath>
<clipPath id="clip1_5248_40">
<rect width="14.1807" height="14.1807" fill="white" transform="translate(0.375 1.36379)"/>
</clipPath>
</defs>
</svg>
