<svg width="19" height="16" viewBox="0 0 19 16" fill="none" xmlns="http://www.w3.org/2000/svg">
<g clip-path="url(#clip0_8432_233)">
<path d="M13.9953 11.8837L17.1679 15.0795L16.1203 16.1347L12.9477 12.939C11.807 13.8583 10.3603 14.4082 8.78684 14.4082C5.10661 14.4082 2.11975 11.3995 2.11975 7.6924C2.11975 3.98526 5.10661 0.976562 8.78684 0.976562C12.4671 0.976562 15.4539 3.98526 15.4539 7.6924C15.4539 9.27734 14.908 10.7346 13.9953 11.8837ZM12.5091 11.33C13.4149 10.3896 13.9724 9.10691 13.9724 7.6924C13.9724 4.80646 11.6518 2.46897 8.78684 2.46897C5.92185 2.46897 3.60133 4.80646 3.60133 7.6924C3.60133 10.5783 5.92185 12.9158 8.78684 12.9158C10.1911 12.9158 11.4645 12.3543 12.398 11.4419L12.5091 11.33Z" fill="#F8F8F8"/>
</g>
<defs>
<clipPath id="clip0_8432_233">
<rect width="17.9966" height="14.9972" fill="white" transform="translate(0.639282 0.812256)"/>
</clipPath>
</defs>
</svg>
