<svg width="13" height="13" viewBox="0 0 13 13" fill="none" xmlns="http://www.w3.org/2000/svg">
<g id="search-line" clip-path="url(#clip0_7142_7725)">
<path id="Vector" d="M9.5299 8.05059L11.6713 10.1919L10.9642 10.899L8.8228 8.75769C8.05285 9.37369 7.0764 9.74219 6.0144 9.74219C3.5304 9.74219 1.5144 7.72619 1.5144 5.24219C1.5144 2.75819 3.5304 0.742188 6.0144 0.742188C8.4984 0.742188 10.5144 2.75819 10.5144 5.24219C10.5144 6.30419 10.1459 7.28064 9.5299 8.05059ZM8.52675 7.67959C9.13815 7.04949 9.5144 6.18999 9.5144 5.24219C9.5144 3.30844 7.94815 1.74219 6.0144 1.74219C4.08065 1.74219 2.5144 3.30844 2.5144 5.24219C2.5144 7.17594 4.08065 8.74219 6.0144 8.74219C6.9622 8.74219 7.8217 8.36594 8.4518 7.75454L8.52675 7.67959Z" fill="#A1A1A1"/>
</g>
<defs>
<clipPath id="clip0_7142_7725">
<rect width="12" height="12.0855" fill="white" transform="translate(0.514343 0.71582)"/>
</clipPath>
</defs>
</svg>
