<svg width="32" height="28" viewBox="0 0 32 28" fill="none" xmlns="http://www.w3.org/2000/svg">
<path d="M3.43346 14.3004C3.20179 12.906 3.20943 11.5052 3.43458 10.1506C4.83579 10.1847 6.09597 9.5125 6.58575 8.33006C7.07553 7.14763 6.6598 5.78121 5.64493 4.81446C6.4435 3.69748 7.4286 2.70155 8.57845 1.87934C9.54524 2.89481 10.9121 3.31089 12.0948 2.82098C13.2776 2.33107 13.9499 1.07034 13.9154 -0.331315C15.3099 -0.562987 16.7107 -0.555339 18.0652 -0.330182C18.0311 1.07102 18.7035 2.3312 19.8858 2.82098C21.0683 3.31077 22.4347 2.89503 23.4014 1.88016C24.5185 2.67872 25.5144 3.66383 26.3365 4.81369C25.3211 5.78047 24.905 7.14731 25.3949 8.33006C25.8848 9.51282 27.1455 10.1851 28.5472 10.1506C28.7788 11.5451 28.7712 12.9459 28.5461 14.3004C27.1449 14.2665 25.8847 14.9387 25.3949 16.121C24.9052 17.3035 25.3209 18.67 26.3358 19.6366C25.5372 20.7537 24.5521 21.7496 23.4022 22.5717C22.4354 21.5563 21.0685 21.1403 19.8858 21.6301C18.7031 22.12 18.0309 23.3808 18.0652 24.7825C16.6708 25.0142 15.2699 25.0065 13.9154 24.7813C13.9495 23.3801 13.2773 22.1199 12.0948 21.6301C10.9124 21.1404 9.54596 21.5561 8.57923 22.571C7.46226 21.7724 6.46632 20.7873 5.64412 19.6375C6.65958 18.6707 7.07567 17.3039 6.58575 16.121C6.09584 14.9383 4.83512 14.2661 3.43346 14.3004ZM15.9904 16.0429C18.0985 16.0429 19.8077 14.3338 19.8077 12.2256C19.8077 10.1173 18.0985 8.40828 15.9904 8.40828C13.8821 8.40828 12.173 10.1173 12.173 12.2256C12.173 14.3338 13.8821 16.0429 15.9904 16.0429Z" fill="#A2D0FA"/>
</svg>
