<svg xmlns="http://www.w3.org/2000/svg" width="16" height="16" viewBox="0 0 16 16" fill="none">
  <path d="M11.8301 11.677V10.5L14.9551 12.375L11.8301 14.25V12.9434C9.90658 12.6686 8.23714 11.4115 7.45689 9.59081L7.45508 9.58663L7.45327 9.59081C6.56691 11.659 4.53325 13 2.2831 13H1.83008V11.75H2.2831C4.03322 11.75 5.61495 10.707 6.30436 9.09837L6.7751 8L6.30436 6.90163C5.61495 5.29299 4.03322 4.25 2.2831 4.25H1.83008V3H2.2831C4.53325 3 6.56691 4.34098 7.45327 6.40921L7.45508 6.41338L7.45689 6.40921C8.23714 4.5885 9.90658 3.33139 11.8301 3.05657V1.75L14.9551 3.625L11.8301 5.5V4.32302C10.4092 4.58602 9.18864 5.54169 8.60583 6.90163L8.13508 8L8.60583 9.09837C9.18864 10.4583 10.4092 11.414 11.8301 11.677Z" fill="#CDCDCD"/>
</svg>