<svg xmlns="http://www.w3.org/2000/svg" width="20" height="20" viewBox="0 0 20 20" fill="none">
<rect x="4" y="5" width="4" height="11" rx="1" fill="#71717A"/>
<path fill-rule="evenodd" clip-rule="evenodd" d="M1.04163 4.29173C1.04163 3.02608 2.06764 2.00006 3.33329 2.00006H16.6666C17.9323 2.00006 18.9583 3.02608 18.9583 4.29173V16.58C18.9583 17.8457 17.9323 18.8717 16.6666 18.8717H3.33329C2.06764 18.8717 1.04163 17.8457 1.04163 16.58V4.29173ZM3.33329 3.25006C2.758 3.25006 2.29163 3.71643 2.29163 4.29173V16.58C2.29163 17.1553 2.758 17.6217 3.33329 17.6217H16.6666C17.2419 17.6217 17.7083 17.1553 17.7083 16.58V4.29173C17.7083 3.71643 17.2419 3.25006 16.6666 3.25006H3.33329Z" fill="#71717A"/>
</svg>