<svg width="41" height="40" viewBox="0 0 41 40" fill="none" xmlns="http://www.w3.org/2000/svg">
<g id="person-icon 1">
<path id="Vector" d="M26.0184 17.6923C26.5369 17.6923 26.9751 17.5108 27.333 17.1479C27.6909 16.785 27.8698 16.3443 27.8698 15.8258C27.8698 15.3073 27.6884 14.8691 27.3255 14.5112C26.9625 14.1533 26.5218 13.9744 26.0033 13.9744C25.4849 13.9744 25.0467 14.1558 24.6888 14.5188C24.3308 14.8817 24.1519 15.3224 24.1519 15.8409C24.1519 16.3593 24.3334 16.7975 24.6963 17.1555C25.0592 17.5133 25.5 17.6923 26.0184 17.6923ZM14.9928 17.6923C15.5112 17.6923 15.9494 17.5108 16.3073 17.1479C16.6653 16.785 16.8442 16.3443 16.8442 15.8258C16.8442 15.3073 16.6627 14.8691 16.2998 14.5112C15.9369 14.1533 15.4961 13.9744 14.9777 13.9744C14.4592 13.9744 14.021 14.1558 13.6631 14.5188C13.3052 14.8817 13.1263 15.3224 13.1263 15.8409C13.1263 16.3593 13.3077 16.7975 13.6706 17.1555C14.0336 17.5133 14.4743 17.6923 14.9928 17.6923ZM20.498 28.141C22.0878 28.141 23.552 27.7025 24.8907 26.8253C26.2294 25.9482 27.2352 24.7842 27.9083 23.3333H13.0878C13.7609 24.7842 14.7667 25.9482 16.1054 26.8253C17.4441 27.7025 18.9083 28.141 20.498 28.141ZM20.5036 35C18.4294 35 16.4792 34.6064 14.6532 33.8192C12.8272 33.032 11.2388 31.9636 9.88801 30.6141C8.53726 29.2646 7.46791 27.6777 6.67996 25.8534C5.89202 24.0291 5.49805 22.0798 5.49805 20.0056C5.49805 17.9313 5.89164 15.9812 6.67884 14.1552C7.46606 12.3291 8.53442 10.7407 9.88392 9.38996C11.2334 8.03921 12.8203 6.96986 14.6446 6.18192C16.469 5.39397 18.4182 5 20.4925 5C22.5667 5 24.5169 5.3936 26.3429 6.18079C28.1689 6.96801 29.7573 8.03637 31.1081 9.38587C32.4588 10.7354 33.5282 12.3223 34.3161 14.1466C35.1041 15.9709 35.498 17.9202 35.498 19.9944C35.498 22.0687 35.1045 24.0188 34.3173 25.8448C33.53 27.6709 32.4617 29.2593 31.1122 30.61C29.7627 31.9608 28.1758 33.0301 26.3515 33.8181C24.5271 34.606 22.5779 35 20.5036 35ZM20.498 33.3333C24.2203 33.3333 27.373 32.0417 29.9564 29.4583C32.5397 26.875 33.8314 23.7222 33.8314 20C33.8314 16.2778 32.5397 13.125 29.9564 10.5417C27.373 7.95833 24.2203 6.66667 20.498 6.66667C16.7758 6.66667 13.623 7.95833 11.0397 10.5417C8.45638 13.125 7.16471 16.2778 7.16471 20C7.16471 23.7222 8.45638 26.875 11.0397 29.4583C13.623 32.0417 16.7758 33.3333 20.498 33.3333Z" fill="white"/>
</g>
</svg>
