<svg width="27" height="26" viewBox="0 0 27 26" fill="none" xmlns="http://www.w3.org/2000/svg">
<g id="bard-line">
<path id="Vector" d="M11.3151 15.2657C11.0317 15.9275 10.1334 15.9275 9.85003 15.2657L9.11273 13.5438C8.45658 12.0115 7.27557 10.7918 5.8024 10.125L3.77298 9.2065C3.12776 8.91449 3.12776 7.95742 3.77298 7.66539L5.73901 6.77556C7.25007 6.09165 8.45227 4.82673 9.0972 3.24215L9.84407 1.4072C10.1212 0.726248 11.044 0.726246 11.3211 1.4072L12.0679 3.24217C12.7129 4.82673 13.915 6.09165 15.4261 6.77556L17.3922 7.66539C18.0374 7.95742 18.0374 8.91449 17.3922 9.2065L15.3628 10.125C13.8896 10.7918 12.7086 12.0115 12.0524 13.5438L11.3151 15.2657ZM6.21174 8.43595C8.13205 9.30509 9.69345 10.7337 10.5826 12.6994C11.4717 10.7337 13.0331 9.30509 14.9534 8.43595C13.0102 7.55644 11.4438 6.0582 10.5826 4.05758C9.72132 6.05821 8.15496 7.55644 6.21174 8.43595ZM18.697 19.458L18.9043 18.9735C19.274 18.1095 19.9397 17.4216 20.7704 17.0453L21.4092 16.7559C21.7548 16.5994 21.7548 16.0874 21.4092 15.9309L20.8062 15.6577C19.9541 15.2717 19.2764 14.5583 18.9131 13.665L18.7002 13.1414C18.5518 12.7765 18.0569 12.7765 17.9085 13.1414L17.6956 13.665C17.3324 14.5583 16.6547 15.2717 15.8026 15.6577L15.1995 15.9309C14.854 16.0874 14.854 16.5994 15.1995 16.7559L15.8383 17.0453C16.669 17.4216 17.3347 18.1095 17.7044 18.9735L17.9118 19.458C18.0635 19.8127 18.5452 19.8127 18.697 19.458ZM17.8343 16.3375L18.3069 15.859L18.7696 16.3375L18.3069 16.8026L17.8343 16.3375Z" fill="#D3D3D3"/>
</g>
</svg>
