<svg width="17" height="17" viewBox="0 0 17 17" fill="none" xmlns="http://www.w3.org/2000/svg">
<g clip-path="url(#clip0_4592_9943)">
<path d="M7.01435 9.73038C6.83399 10.1515 6.26241 10.1515 6.08207 9.73038L5.61291 8.63471C5.1954 7.65972 4.4439 6.88356 3.5065 6.45929L2.21515 5.87483C1.80458 5.68902 1.80459 5.08002 2.21515 4.8942L3.46617 4.32798C4.42767 3.8928 5.19265 3.08791 5.60304 2.07962L6.07828 0.91201C6.25462 0.478712 6.84179 0.478711 7.01814 0.91201L7.49337 2.07963C7.90375 3.08791 8.66871 3.8928 9.63022 4.32798L10.8813 4.8942C11.2918 5.08002 11.2918 5.68902 10.8813 5.87483L9.58992 6.45929C8.65251 6.88356 7.90102 7.65972 7.48348 8.63471L7.01435 9.73038ZM3.76697 5.38452C4.98889 5.93756 5.98244 6.8466 6.5482 8.0974C7.11399 6.8466 8.10752 5.93756 9.32942 5.38452C8.09293 4.82487 7.09624 3.87152 6.5482 2.59849C6.00017 3.87152 5.00347 4.82487 3.76697 5.38452ZM11.7115 12.398L11.8435 12.0897C12.0787 11.54 12.5023 11.1022 13.0309 10.8628L13.4374 10.6786C13.6572 10.579 13.6572 10.2533 13.4374 10.1537L13.0537 9.9798C12.5115 9.73419 12.0802 9.28027 11.849 8.71184L11.7136 8.37864C11.6191 8.14645 11.3043 8.14645 11.2098 8.37864L11.0743 8.71184C10.8432 9.28027 10.412 9.73419 9.86976 9.9798L9.486 10.1537C9.26619 10.2533 9.26619 10.579 9.486 10.6786L9.89248 10.8628C10.4211 11.1022 10.8447 11.54 11.0799 12.0897L11.2119 12.398C11.3084 12.6237 11.6149 12.6237 11.7115 12.398ZM11.1626 10.4124L11.4633 10.1079L11.7577 10.4124L11.4633 10.7083L11.1626 10.4124Z" fill="white"/>
</g>
<defs>
<clipPath id="clip0_4592_9943">
<rect width="16.5442" height="16.5442" fill="white" transform="translate(0.332031 0.0163574)"/>
</clipPath>
</defs>
</svg>
