<svg width="139" height="88" viewBox="0 0 139 88" fill="none" xmlns="http://www.w3.org/2000/svg">
<path fill-rule="evenodd" clip-rule="evenodd" d="M2.31443 5.12404C0.464231 6.41857 0.0137694 8.96788 1.3083 10.8181L17.4449 33.8813L11.0447 38.0759C10.4151 38.4885 10.2393 39.3333 10.6518 39.9629L12.6174 42.9619C13.03 43.5914 13.8748 43.7673 14.5043 43.3547L21.0648 39.055L50.2795 80.8102C51.5741 82.6604 54.1234 83.1109 55.9736 81.8164L61.3781 78.035C63.2283 76.7405 63.6787 74.1912 62.3842 72.341L33.4265 30.9532L40.0593 26.6062C40.6889 26.1936 40.8647 25.3487 40.4521 24.7192L38.4866 21.7202C38.074 21.0907 37.2292 20.9148 36.5997 21.3274L29.8066 25.7795L13.413 2.34883C12.1184 0.498628 9.56914 0.0481612 7.71894 1.34269L2.31443 5.12404Z" fill="url(#paint0_linear_11644_467)"/>
<path fill-rule="evenodd" clip-rule="evenodd" d="M136.778 5.0486C138.628 6.34313 139.078 8.89244 137.784 10.7426L120.776 35.0515L126.642 38.896C127.271 39.3086 127.447 40.1534 127.034 40.7829L125.069 43.7819C124.656 44.4115 123.811 44.5873 123.182 44.1747L117.156 40.2252L85.5685 85.3713C84.274 87.2215 81.7247 87.6719 79.8745 86.3774L74.4699 82.5961C72.6198 81.3015 72.1693 78.7522 73.4638 76.902L104.794 32.1234L97.6269 27.4262C96.9974 27.0136 96.8215 26.1688 97.2341 25.5393L99.1996 22.5403C99.6122 21.9107 100.457 21.7349 101.087 22.1475L108.414 26.9497L125.679 2.27339C126.974 0.423187 129.523 -0.0272791 131.373 1.26725L136.778 5.0486Z" fill="url(#paint1_linear_11644_467)"/>
<defs>
<linearGradient id="paint0_linear_11644_467" x1="4.16905" y1="6.9468" x2="57.5865" y2="89.5927" gradientUnits="userSpaceOnUse">
<stop stop-color="#F3F3F3"/>
<stop offset="0.556163" stop-color="#C2BECF" stop-opacity="0.4"/>
<stop offset="1" stop-color="#746B97" stop-opacity="0"/>
</linearGradient>
<linearGradient id="paint1_linear_11644_467" x1="134.736" y1="7.23022" x2="78.1934" y2="94.3212" gradientUnits="userSpaceOnUse">
<stop stop-color="#F3F3F3"/>
<stop offset="0.556163" stop-color="#C2BECF" stop-opacity="0.4"/>
<stop offset="1" stop-color="#746B97" stop-opacity="0"/>
</linearGradient>
</defs>
</svg>
