<svg width="28" height="28" viewBox="0 0 28 28" fill="none" xmlns="http://www.w3.org/2000/svg">
<path d="M18.3247 19.0511C17.9106 17.5056 18.8543 15.9275 20.4481 15.5005C21.0856 15.3297 21.7174 15.3923 22.2783 15.5733L27.9653 7.85437L19.3589 10.1605C17.7651 10.5875 16.1588 9.69276 15.7447 8.14728C15.5791 7.52908 15.6531 6.91292 15.8476 6.36387L8.00684 0.944556L10.243 9.29016C10.6572 10.8356 9.71342 12.4137 8.11964 12.8407C7.48213 13.0115 6.85039 12.9489 6.28944 12.7679L0.602462 20.4868L9.20886 18.1808C10.8026 17.7537 12.4089 18.6485 12.8231 20.1939C12.9887 20.8121 12.9147 21.4283 12.7201 21.9773L20.5609 27.3967L18.3247 19.0511ZM14.9182 16.5378C13.5502 16.9043 12.1982 16.1512 11.8427 14.8247C11.4873 13.4982 12.2816 12.17 13.6496 11.8034C15.0176 11.4369 16.3696 12.19 16.725 13.5165C17.0805 14.843 16.2862 16.1712 14.9182 16.5378Z" fill="#F8F8F8"/>
</svg>
