<svg width="12" height="13" viewBox="0 0 12 13" fill="none" xmlns="http://www.w3.org/2000/svg">
<path d="M0.617859 10.6443V2.20679C0.617859 1.17126 1.45733 0.331787 2.49286 0.331787H11.2429C11.588 0.331787 11.8679 0.611612 11.8679 0.956787V12.2068C11.8679 12.552 11.588 12.8318 11.2429 12.8318H2.80536C1.59723 12.8318 0.617859 11.8524 0.617859 10.6443ZM10.6179 11.5818V9.70679H2.80536C2.28759 9.70679 1.86786 10.1265 1.86786 10.6443C1.86786 11.162 2.28759 11.5818 2.80536 11.5818H10.6179ZM4.99286 1.58179H2.49286C2.14768 1.58179 1.86786 1.86161 1.86786 2.20679V8.66729C2.152 8.53229 2.46986 8.45679 2.80536 8.45679H10.6179V1.58179H9.36786V6.58179L7.18036 5.33179L4.99286 6.58179V1.58179Z" fill="#90939B"/>
</svg>
