<svg width="25" height="25" viewBox="0 0 25 25" fill="none" xmlns="http://www.w3.org/2000/svg">
<g id="book-marked-line">
<path id="Vector" d="M3.82227 18.7285V5.22852C3.82227 3.57167 5.16542 2.22852 6.82227 2.22852H20.8223C21.3746 2.22852 21.8223 2.67624 21.8223 3.22852V21.2285C21.8223 21.7808 21.3746 22.2285 20.8223 22.2285H7.32227C5.38927 22.2285 3.82227 20.6615 3.82227 18.7285ZM19.8223 20.2285V17.2285H7.32227C6.49384 17.2285 5.82227 17.9001 5.82227 18.7285C5.82227 19.5569 6.49384 20.2285 7.32227 20.2285H19.8223ZM10.8223 4.22852H6.82227C6.26999 4.22852 5.82227 4.67624 5.82227 5.22852V15.5653C6.2769 15.3493 6.78547 15.2285 7.32227 15.2285H19.8223V4.22852H17.8223V12.2285L14.3223 10.2285L10.8223 12.2285V4.22852Z" fill="#F8F8F8"/>
</g>
</svg>
