<svg width="83" height="62" viewBox="0 0 83 62" fill="none" xmlns="http://www.w3.org/2000/svg">
<g clip-path="url(#clip0_13373_1817)">
<path d="M29.2947 51.7926C25.6375 53.0095 21.9804 54.1158 18.3232 55.3327C17.9907 55.4434 15.8851 56.1071 13.7795 54.8902C12.4496 54.1158 11.4522 52.7883 11.1197 51.1289L5.13526 24.7994C4.3595 21.4806 6.46514 17.8298 9.67901 16.8342L45.5857 5.32888C48.9104 4.33322 52.1242 6.10327 52.9 9.53274C53.5649 12.4091 54.2299 15.2854 54.784 18.0511" stroke="#F2E4B5" stroke-width="4.84467"/>
<path d="M36.7198 17.9404H73.7347C77.1702 17.9404 79.9408 20.7061 79.9408 24.1356V51.5713C79.9408 55.0008 77.1702 57.7665 73.7347 57.7665H36.7198C33.2843 57.7665 30.5137 55.0008 30.5137 51.5713V24.2462C30.5137 20.7061 33.2843 17.9404 36.7198 17.9404Z" stroke="#F2E4B5" stroke-width="4.84467"/>
</g>
<defs>
<clipPath id="clip0_13373_1817">
<rect width="82.009" height="60.8454" fill="white" transform="translate(0.813171 0.350586)"/>
</clipPath>
</defs>
</svg>
