<svg width="164" height="164" viewBox="0 0 164 164" fill="none" xmlns="http://www.w3.org/2000/svg">
<path id="Vector" d="M82.3106 0.29791C37.3657 0.29791 0.844543 36.9376 0.844543 82.0284C0.844543 127.122 37.3657 163.759 82.3106 163.759C127.258 163.759 163.777 127.119 163.777 82.0284C163.777 70.3142 161.298 59.1601 156.867 49.0684C161.118 45.0903 163.777 39.372 163.777 33.0743C163.777 26.6378 160.263 21.3158 156.503 16.4123C152.743 11.5087 148.497 6.82553 145.774 2.18229C145.382 1.50836 144.796 0.967201 144.093 0.631266C143.391 0.295306 142.603 0.178631 141.833 0.297313C140.689 0.485409 139.689 1.17645 139.106 2.18229C136.594 6.46632 132.814 10.8237 129.287 15.3179C116.013 5.88282 99.8087 0.297391 82.3091 0.297391L82.3106 0.29791ZM82.3106 8.08213C98.1638 8.08213 112.79 13.1093 124.802 21.6421C122.68 25.1194 121.104 28.8258 121.104 33.0746C121.104 44.9999 130.679 54.7849 142.441 54.7849C145.197 54.7849 147.839 54.2407 150.26 53.2641C153.975 62.0994 156.018 71.821 156.018 82.0268C156.018 122.913 123.065 155.973 82.3111 155.973C41.5575 155.973 8.60409 122.913 8.60409 82.0268C8.60409 41.141 41.5575 8.08053 82.3111 8.08053L82.3106 8.08213ZM142.44 10.8794C145.121 14.5418 147.953 17.9897 150.381 21.1562C153.839 25.6665 156.017 29.6506 156.017 33.0746C156.017 40.874 149.96 47.0007 142.44 47.0007C134.92 47.0007 128.863 40.874 128.863 33.0746C128.863 29.6506 131.042 25.6663 134.5 21.1562C136.927 17.9897 139.759 14.5415 142.44 10.8794H142.44ZM53.2148 54.7857C48.9298 54.7857 45.4558 58.2699 45.4558 62.5691C45.4558 66.8681 48.9298 70.3533 53.2148 70.3533C57.4999 70.3533 60.9739 66.8681 60.9739 62.5691C60.9739 58.2702 57.4999 54.7857 53.2148 54.7857ZM111.404 54.7857C107.119 54.7857 103.645 58.2699 103.645 62.5691C103.645 66.8681 107.119 70.3533 111.404 70.3533C115.689 70.3533 119.162 66.8681 119.162 62.5691C119.162 58.2702 115.689 54.7857 111.404 54.7857ZM82.308 107.326C69.3953 107.326 57.8705 112.179 48.7899 119.913C47.8565 120.523 47.2288 121.505 47.0674 122.609C46.905 123.715 47.2238 124.836 47.9427 125.689C48.6616 126.542 49.7103 127.044 50.8233 127.067C51.9362 127.091 53.0059 126.634 53.7598 125.813C61.6061 119.131 71.3235 115.11 82.3088 115.11C93.2942 115.11 103.013 119.131 110.858 125.813C111.612 126.634 112.681 127.091 113.794 127.067C114.908 127.044 115.956 126.542 116.675 125.689C117.394 124.836 117.713 123.715 117.551 122.609C117.388 121.505 116.761 120.523 115.828 119.913C106.746 112.179 95.2216 107.326 82.3074 107.326H82.308Z" fill="#F8F8F8"/>
</svg>
