<svg width="14" height="14" viewBox="0 0 14 14" fill="none" xmlns="http://www.w3.org/2000/svg">
<path d="M6.75354 12.792C3.65847 12.792 1.14941 10.2829 1.14941 7.18787C1.14941 4.09279 3.65847 1.58374 6.75354 1.58374C9.84859 1.58374 12.3577 4.09279 12.3577 7.18787C12.3577 10.2829 9.84859 12.792 6.75354 12.792ZM6.75354 11.6712C9.22962 11.6712 11.2368 9.66394 11.2368 7.18787C11.2368 4.71181 9.22962 2.70457 6.75354 2.70457C4.27748 2.70457 2.27024 4.71181 2.27024 7.18787C2.27024 9.66394 4.27748 11.6712 6.75354 11.6712ZM6.19313 4.38581H7.31396V5.50663H6.19313V4.38581ZM6.19313 6.62746H7.31396V9.98993H6.19313V6.62746Z" fill="#7F80D0"/>
</svg>
