<svg
  xmlns="http://www.w3.org/2000/svg"
  width="25"
  height="25"
  viewBox="0 0 25 25"
  fill="none"
>
  <path
    d="M12.9736 3.24536C12.1486 3.24536 11.4736 3.92036 11.4736 4.74536C11.4736 5.57036 12.1486 6.24536 12.9736 6.24536C13.7986 6.24536 14.4736 5.57036 14.4736 4.74536C14.4736 3.92036 13.7986 3.24536 12.9736 3.24536ZM12.9736 18.2454C12.1486 18.2454 11.4736 18.9204 11.4736 19.7454C11.4736 20.5704 12.1486 21.2454 12.9736 21.2454C13.7986 21.2454 14.4736 20.5704 14.4736 19.7454C14.4736 18.9204 13.7986 18.2454 12.9736 18.2454ZM12.9736 10.7454C12.1486 10.7454 11.4736 11.4204 11.4736 12.2454C11.4736 13.0704 12.1486 13.7454 12.9736 13.7454C13.7986 13.7454 14.4736 13.0704 14.4736 12.2454C14.4736 11.4204 13.7986 10.7454 12.9736 10.7454Z"
    fill="#F8F8F8"
  />
</svg>