<svg width="60" height="60" viewBox="0 0 60 60" fill="none" xmlns="http://www.w3.org/2000/svg">
<rect width="60" height="60" rx="30" fill="white" fill-opacity="0.01"/>
<rect width="60" height="60" rx="30" fill="url(#paint0_radial_3725_10037)" fill-opacity="0.12"/>
<rect x="0.787241" y="0.787241" width="58.4255" height="58.4255" rx="29.2128" stroke="white" stroke-opacity="0.04" stroke-width="1.57448"/>
<rect x="0.787241" y="0.787241" width="58.4255" height="58.4255" rx="29.2128" stroke="url(#paint1_linear_3725_10037)" stroke-opacity="0.36" stroke-width="1.57448"/>
<path d="M30 21C29.175 21 28.5 21.675 28.5 22.5C28.5 23.325 29.175 24 30 24C30.825 24 31.5 23.325 31.5 22.5C31.5 21.675 30.825 21 30 21ZM30 36C29.175 36 28.5 36.675 28.5 37.5C28.5 38.325 29.175 39 30 39C30.825 39 31.5 38.325 31.5 37.5C31.5 36.675 30.825 36 30 36ZM30 28.5C29.175 28.5 28.5 29.175 28.5 30C28.5 30.825 29.175 31.5 30 31.5C30.825 31.5 31.5 30.825 31.5 30C31.5 29.175 30.825 28.5 30 28.5Z" fill="white"/>
<defs>
<radialGradient id="paint0_radial_3725_10037" cx="0" cy="0" r="1" gradientUnits="userSpaceOnUse" gradientTransform="translate(30) rotate(90) scale(38.3667)">
<stop stop-color="white"/>
<stop offset="1" stop-color="white" stop-opacity="0"/>
</radialGradient>
<linearGradient id="paint1_linear_3725_10037" x1="30" y1="0" x2="30" y2="44.4231" gradientUnits="userSpaceOnUse">
<stop stop-color="white"/>
<stop offset="1" stop-color="white" stop-opacity="0"/>
</linearGradient>
</defs>
</svg>
