<svg width="24" height="28" viewBox="0 0 24 28" fill="none" xmlns="http://www.w3.org/2000/svg">
<g id="token-icon">
<path id="Vector" d="M12 27.3189L0 20.6596V7.34099L12 0.681641L24 7.34099V20.6596L12 27.3189ZM8.08878 10.6509C8.58812 10.0848 9.17625 9.64432 9.85319 9.3296C10.5301 9.01485 11.2457 8.85748 12 8.85748C12.7543 8.85748 13.4699 9.01484 14.1468 9.32956C14.8237 9.64428 15.4119 10.0847 15.9112 10.6509L20.7904 7.93173L12 3.04468L3.2096 7.93173L8.08878 10.6509ZM10.9715 24.3863V19.0509C9.76355 18.7836 8.77585 18.1805 8.00838 17.2416C7.2409 16.3027 6.85716 15.2223 6.85716 14.0003C6.85716 13.7225 6.87518 13.4619 6.91123 13.2183C6.94728 12.9748 7.00837 12.7256 7.09452 12.4706L2.05708 9.64866V19.4439L10.9715 24.3863ZM12 17.0861C12.8598 17.0861 13.589 16.7867 14.1877 16.188C14.7864 15.5893 15.0858 14.8601 15.0858 14.0003C15.0858 13.1405 14.7864 12.4113 14.1877 11.8126C13.589 11.2139 12.8598 10.9146 12 10.9146C11.1402 10.9146 10.411 11.2139 9.81229 11.8126C9.21359 12.4113 8.91424 13.1405 8.91424 14.0003C8.91424 14.8601 9.21359 15.5893 9.81229 16.188C10.411 16.7867 11.1402 17.0861 12 17.0861ZM13.0285 24.3863L21.9429 19.4438V9.64862L16.9055 12.4706C16.9916 12.7256 17.0527 12.9748 17.0888 13.2183C17.1248 13.4618 17.1428 13.7225 17.1428 14.0003C17.1428 15.2223 16.7591 16.3027 15.9916 17.2416C15.2241 18.1805 14.2365 18.7836 13.0285 19.0508V24.3863Z" fill="white"/>
</g>
</svg>
