<svg width="13" height="14" viewBox="0 0 13 14" fill="none" xmlns="http://www.w3.org/2000/svg">
<path d="M6.76461 13.2662C3.35816 13.2662 0.59668 10.5048 0.59668 7.09831C0.59668 3.69189 3.35816 0.93042 6.76461 0.93042C10.171 0.93042 12.9325 3.69189 12.9325 7.09831C12.9325 10.5048 10.171 13.2662 6.76461 13.2662ZM6.76461 12.0326C9.48978 12.0326 11.6989 9.82348 11.6989 7.09831C11.6989 4.37318 9.48978 2.164 6.76461 2.164C4.03944 2.164 1.83026 4.37318 1.83026 7.09831C1.83026 9.82348 4.03944 12.0326 6.76461 12.0326ZM4.60583 8.33189H7.99819C8.16849 8.33189 8.30659 8.19385 8.30659 8.02349C8.30659 7.8532 8.16849 7.7151 7.99819 7.7151H5.53103C4.6794 7.7151 3.98903 7.02479 3.98903 6.17312C3.98903 5.32153 4.6794 4.63117 5.53103 4.63117H6.14782V3.39759H7.3814V4.63117H8.92338V5.86472H5.53103C5.36069 5.86472 5.22262 6.00282 5.22262 6.17312C5.22262 6.34348 5.36069 6.48152 5.53103 6.48152H7.99819C8.8498 6.48152 9.54017 7.17189 9.54017 8.02349C9.54017 8.87516 8.8498 9.56547 7.99819 9.56547H7.3814V10.7991H6.14782V9.56547H4.60583V8.33189Z" fill="#939393"/>
</svg>
