<svg width="16" height="16" viewBox="0 0 16 16" fill="none" xmlns="http://www.w3.org/2000/svg">
<g id="translate-2">
<path id="Vector" d="M11.9644 6.89124L14.7144 13.7662H13.3675L12.6169 11.8912H10.0606L9.31123 13.7662H7.96498L10.7144 6.89124H11.9644ZM6.65186 1.89124V3.14124H10.4019V4.39124L9.17198 4.39161C8.67842 5.87009 7.90111 7.2073 6.90904 8.32936C7.36086 8.7323 7.84998 9.08974 8.36904 9.39617L7.89992 10.5697C7.22917 10.19 6.60151 9.73649 6.02661 9.2193C4.91062 10.2237 3.59507 10.9883 2.15117 11.4371L1.81596 10.2314C3.05092 9.84142 4.18025 9.1873 5.14587 8.33005C4.44109 7.5338 3.84481 6.62864 3.38149 5.64141L4.78113 5.64147C5.13322 6.29052 5.55172 6.8933 6.02665 7.43936C6.79454 6.55691 7.41467 5.52634 7.84529 4.39187L1.65186 4.39124V3.14124H5.40186V1.89124H6.65186ZM11.3394 8.69449L10.56 10.6412H12.1175L11.3394 8.69449Z" fill="#EDEDED"/>
</g>
</svg>
