<svg xmlns="http://www.w3.org/2000/svg" width="15" height="15" viewBox="0 0 15 15" fill="none">
  <path d="M10.1249 3.90676H13.0431V5.07403H11.8758V12.6613C11.8758 12.9837 11.6145 13.2449 11.2922 13.2449H3.12127C2.79894 13.2449 2.53763 12.9837 2.53763 12.6613V5.07403H1.37036V3.90676H4.28855V2.15585C4.28855 1.83352 4.54985 1.57221 4.87218 1.57221H9.54128C9.86362 1.57221 10.1249 1.83352 10.1249 2.15585V3.90676ZM10.7086 5.07403H3.70491V12.0777H10.7086V5.07403ZM5.45582 6.82494H6.62309V10.3268H5.45582V6.82494ZM7.79037 6.82494H8.95764V10.3268H7.79037V6.82494ZM5.45582 2.73949V3.90676H8.95764V2.73949H5.45582Z" fill="#959595"/>
</svg>