<svg xmlns="http://www.w3.org/2000/svg" width="14" height="14" viewBox="0 0 14 14" fill="none">
  <g clip-path="url(#clip0_9932_2646)">
    <path d="M2.7207 11.9883C2.7207 9.59504 4.6608 7.65495 7.05404 7.65495C9.44728 7.65495 11.3874 9.59504 11.3874 11.9883H10.304C10.304 10.1934 8.84896 8.73828 7.05404 8.73828C5.25911 8.73828 3.80404 10.1934 3.80404 11.9883H2.7207ZM7.05404 7.11328C5.25841 7.11328 3.80404 5.65891 3.80404 3.86328C3.80404 2.06766 5.25841 0.613281 7.05404 0.613281C8.84966 0.613281 10.304 2.06766 10.304 3.86328C10.304 5.65891 8.84966 7.11328 7.05404 7.11328ZM7.05404 6.02995C8.25112 6.02995 9.2207 5.06036 9.2207 3.86328C9.2207 2.6662 8.25112 1.69661 7.05404 1.69661C5.85695 1.69661 4.88737 2.6662 4.88737 3.86328C4.88737 5.06036 5.85695 6.02995 7.05404 6.02995Z" fill="#F8F8F8"/>
  </g>
  <defs>
    <clipPath id="clip0_9932_2646">
      <rect width="13" height="13" fill="white" transform="translate(0.554688 0.0712891)"/>
    </clipPath>
  </defs>
</svg>