<svg xmlns="http://www.w3.org/2000/svg" width="47" height="23" viewBox="0 0 47 23" fill="none">
  <path d="M4.55962 11.2177C4.55962 7.27639 7.81073 4.08134 11.8212 4.08134C14.3181 4.08134 16.0113 4.96584 17.4212 6.35144C18.9282 7.83242 20.0892 9.85608 21.4185 12.2078L21.4884 12.3314C22.7353 14.5377 24.1515 17.0436 26.109 18.9676C28.2004 21.0227 30.916 22.432 34.6432 22.432C40.9454 22.432 46.0543 17.4112 46.0543 11.2177C46.0543 5.02422 40.9454 0.00341797 34.6432 0.00341797C31.1979 0.00341797 28.1095 1.50389 26.0171 3.87616C26.9433 5.21105 27.7082 6.53986 28.3443 7.66461C29.5977 5.52325 31.949 4.08134 34.6432 4.08134C38.6537 4.08134 41.9048 7.27639 41.9048 11.2177C41.9048 15.159 38.6537 18.3541 34.6432 18.3541C32.1463 18.3541 30.4531 17.4696 29.0433 16.0839C27.5362 14.603 26.3752 12.5793 25.0459 10.2276L24.976 10.104C23.7291 7.89766 22.3129 5.39168 20.3554 3.4679C18.2641 1.41275 15.5484 0.00341797 11.8212 0.00341797C5.51904 0.00341797 0.410156 5.02422 0.410156 11.2177C0.410156 17.4112 5.51904 22.432 11.8212 22.432C15.2664 22.432 18.355 20.9315 20.4473 18.5592C19.5211 17.2243 18.7562 15.8955 18.1202 14.7708C16.8668 16.9121 14.5153 18.3541 11.8212 18.3541C7.81073 18.3541 4.55962 15.159 4.55962 11.2177Z" fill="#FFE3AD"/>
</svg>