<svg xmlns="http://www.w3.org/2000/svg" width="17" height="18" viewBox="0 0 17 18" fill="none">
  <path d="M2.47674 5.80957L3.38798 13.5551H13.6185L14.5297 5.80957L11.6894 7.70311L8.50325 3.24248L5.31705 7.70311L2.47674 5.80957ZM1.98706 3.78049L4.96155 5.76348L7.92681 1.6121C8.15418 1.29377 8.59661 1.22004 8.91493 1.44742C8.97854 1.49286 9.03414 1.5485 9.07962 1.6121L12.0449 5.76348L15.0193 3.78049C15.3449 3.56349 15.7846 3.65145 16.0017 3.97695C16.095 4.11693 16.1354 4.28555 16.1158 4.45262L14.9518 14.3463C14.9098 14.703 14.6075 14.9718 14.2483 14.9718H2.7581C2.39892 14.9718 2.09659 14.703 2.05462 14.3463L0.890662 4.45262C0.844953 4.0641 1.12286 3.71209 1.51138 3.66638C1.67846 3.64672 1.84708 3.68717 1.98706 3.78049ZM8.50325 10.7218C7.72082 10.7218 7.08658 10.0876 7.08658 9.30514C7.08658 8.52272 7.72082 7.88848 8.50325 7.88848C9.2856 7.88848 9.91992 8.52272 9.91992 9.30514C9.91992 10.0876 9.2856 10.7218 8.50325 10.7218Z" fill="#EEBF56"/>
</svg>