<svg xmlns="http://www.w3.org/2000/svg" width="58" height="58" viewBox="0 0 58 58" fill="none">
  <rect x="13" y="13" width="31.4167" height="31.4167" fill="#D9D9D9"/>
  <path d="M29.5896 9.66699C30.8803 9.6741 34.1097 9.70532 37.5409 9.84276L38.7575 9.8958C42.2121 10.0594 45.6638 10.3388 47.3758 10.8161C49.6593 11.4576 51.4541 13.3295 52.0607 15.7022C53.0267 19.47 53.1475 26.8239 53.1625 28.6035L53.1647 28.9723V28.9981C53.1647 28.9981 53.1647 29.0071 53.1647 29.0242L53.1625 29.393C53.1475 31.1727 53.0267 38.5266 52.0607 42.2944C51.4457 44.6758 49.6508 46.5477 47.3758 47.1804C45.6638 47.6577 42.2121 47.9371 38.7575 48.1007L37.5409 48.1536C34.1097 48.2911 30.8803 48.3223 29.5896 48.3295L29.0231 48.3315H28.998C28.998 48.3315 28.9895 48.3315 28.9729 48.3315L28.4069 48.3295C25.6751 48.3146 14.253 48.1911 10.6202 47.1804C8.3367 46.5388 6.54189 44.6671 5.93518 42.2944C4.96931 38.5266 4.84858 31.1727 4.8335 29.393V28.6035C4.84858 26.8239 4.96931 19.47 5.93518 15.7022C6.5503 13.3207 8.34511 11.4488 10.6202 10.8161C14.253 9.8053 25.6751 9.68202 28.4069 9.66699H29.5896ZM24.1647 20.5399V37.4587L38.7575 28.9723L24.1647 20.5399Z" fill="#FF1F1F"/>
</svg>